<svg xmlns="http://www.w3.org/2000/svg" xmlns:xlink="http://www.w3.org/1999/xlink" xmlns:lucid="lucid" width="1627" height="1061"><g transform="translate(-156 -198)" lucid:page-tab-id="0_0"><path d="M1001 265.1a6 6 0 0 1 6-6h708a6 6 0 0 1 6 6v868a6 6 0 0 1-6 6h-708a6 6 0 0 1-6-6z" fill="#e3fae3"/><path d="M1005.45 259.32l.6-.15.95-.07h2m8 0h4m8 0h4m8 0h4m8 0h4m8 0h4m8 0h4m8 0h4m8 0h4m8 0h4m8 0h4m8 0h4m8 0h4m8 0h4m8 0h4m8 0h4m8 0h4m8 0h4m8 0h4m8 0h4m8 0h4m8 0h4m8 0h4m8 0h4m8 0h4m8 0h4m8 0h4m8 0h4m8 0h4m8 0h4m8 0h4m8 0h4m8 0h4m8 0h4m8 0h4m8 0h4m8 0h4m8 0h4m8 0h4m8 0h4m8 0h4m8 0h4m8 0h4m8 0h4m8 0h4m8 0h4m8 0h4m8 0h4m8 0h4m8 0h4m8 0h4m8 0h4m8 0h4m8 0h4m8 0h4m8 0h4m8 0h4m8 0h4m8 0h4m8 0h2l.94.07.6.15m4.24 4.23l.15.6.07.95v2m0 8.04v4.02m0 8.04v4.02m0 8.03v4.02m0 8.04v4.03m0 8.03v4.02m0 8.04v4.02m0 8.04v4m0 8.05v4.02m0 8.04v4m0 8.04v4.02m0 8.04v4.02m0 8.03v4.02m0 8.04v4.03m0 8.03v4.02m0 8.04v4.02m0 8.04v4m0 8.05v4.02m0 8.04v4m0 8.04v4.02m0 8.04v4.02m0 8.03v4.02m0 8.04v4.03m0 8.03v4.02m0 8.04v4.02m0 8.03v4.02m0 8.03v4.02m0 8.04v4m0 8.04v4.02m0 8.04v4.02m0 8.03v4.02m0 8.04v4.03m0 8.03v4.02m0 8.04v4.02m0 8.03V677m0 8.03v4.02m0 8.04v4m0 8.04v4.02m0 8.04v4.02m0 8.03v4.02m0 8.04v4.03m0 8.03v4.02m0 8.04v4.02m0 8.03v4.02m0 8.03v4.02m0 8.04v4m0 8.04v4.02m0 8.04v4.02m0 8.03v4.02m0 8.04v4.03m0 8.03v4.02m0 8.04v4.02m0 8.03V894m0 8.03v4.02m0 8.04v4m0 8.04v4.02m0 8.04v4.02m0 8.03v4.02m0 8.04v4.03m0 8.03v4.02m0 8.04v4.02m0 8.03v4.02m0 8.03v4.02m0 8.04v4m0 8.04v4.02m0 8.04v4.02m0 8.03v4.02m0 8.04v4.03m0 8.03v4.02m0 8.04v4.02m0 8.03v4.02m0 8.03v4.02m0 8.04v2l-.07.93-.15.6m-4.23 4.24l-.6.15-.95.08h-2m-8 0h-4m-8 0h-4m-8 0h-4m-8 0h-4m-8 0h-4m-8 0h-4m-8 0h-4m-8 0h-4m-8 0h-4m-8 0h-4m-8 0h-4m-8 0h-4m-8 0h-4m-8 0h-4m-8 0h-4m-8 0h-4m-8 0h-4m-8 0h-4m-8 0h-4m-8 0h-4m-8 0h-4m-8 0h-4m-8 0h-4m-8 0h-4m-8 0h-4m-8 0h-4m-8 0h-4m-8 0h-4m-8 0h-4m-8 0h-4m-8 0h-4m-8 0h-4m-8 0h-4m-8 0h-4m-8 0h-4m-8 0h-4m-8 0h-4m-8 0h-4m-8 0h-4m-8 0h-4m-8 0h-4m-8 0h-4m-8 0h-4m-8 0h-4m-8 0h-4m-8 0h-4m-8 0h-4m-8 0h-4m-8 0h-4m-8 0h-4m-8 0h-4m-8 0h-4m-8 0h-4m-8 0h-4m-8 0h-4m-8 0h-4m-8 0h-4m-8 0h-4m-8 0h-2l-.94-.08-.6-.14m-4.24-4.24l-.15-.6-.07-.94v-2m0-8.05v-4.02m0-8.04v-4.03m0-8.03v-4.02m0-8.04v-4.02m0-8.03v-4.02m0-8.03v-4.02m0-8.03v-4.02m0-8.04v-4.02m0-8.04v-4m0-8.05v-4.02m0-8.04v-4.02m0-8.04v-4.02m0-8.04v-4.02m0-8.03v-4.02m0-8.03v-4.02m0-8.03v-4.02m0-8.04v-4.02m0-8.04v-4m0-8.05v-4.02m0-8.04v-4.02m0-8.04v-4.02m0-8.04v-4.02m0-8.03v-4.02m0-8.03v-4.02m0-8.03v-4.02m0-8.04v-4.02m0-8.04v-4m0-8.05v-4.02m0-8.04v-4.02m0-8.04v-4.02m0-8.04v-4.02m0-8.03v-4.02m0-8.03v-4.02m0-8.03v-4.02m0-8.04v-4.02m0-8.04v-4m0-8.05v-4.02m0-8.04v-4.02m0-8.04v-4.02m0-8.04v-4.02m0-8.03v-4.02m0-8.03v-4.02m0-8.03v-4.02m0-8.04v-4.02m0-8.04v-4m0-8.05v-4.02m0-8.04v-4.02m0-8.04v-4.02m0-8.04v-4.02m0-8.03v-4.02m0-8.03v-4.02m0-8.03v-4.02m0-8.04v-4.02m0-8.04v-4m0-8.05v-4.02m0-8.04v-4.02m0-8.04v-4.02m0-8.04v-4.02m0-8.03v-4.02m0-8.03v-4.02m0-8.03v-4.02m0-8.04v-4.02m0-8.04v-4m0-8.05v-4.02m0-8.04v-4.02m0-8.04v-4.02m0-8.04v-4.02m0-8.03v-4.02m0-8.03v-4.02m0-8.03v-4.02m0-8.04v-4.02m0-8.04v-2l.07-.94.15-.6" stroke="#282c33" stroke-width="2" fill="none"/><path d="M200 266a6 6 0 0 1 6-6h768a6 6 0 0 1 6 6v868a6 6 0 0 1-6 6H206a6 6 0 0 1-6-6z" fill="#fff3d9"/><path d="M204.45 260.22l.6-.15.95-.07h2m8 0h4m8 0h4m8 0h4m8 0h4m8 0h4m8 0h4m8 0h4m8 0h4m8 0h4m8 0h4m8 0h4m8 0h4m8 0h4m8 0h4m8 0h4m8 0h4m8 0h4m8 0h4m8 0h4m8 0h4m8 0h4m8 0h4m8 0h4m8 0h4m8 0h4m8 0h4m8 0h4m8 0h4m8 0h4m8 0h4m8 0h4m8 0h4m8 0h4m8 0h4m8 0h4m8 0h4m8 0h4m8 0h4m8 0h4m8 0h4m8 0h4m8 0h4m8 0h4m8 0h4m8 0h4m8 0h4m8 0h4m8 0h4m8 0h4m8 0h4m8 0h4m8 0h4m8 0h4m8 0h4m8 0h4m8 0h4m8 0h4m8 0h4m8 0h4m8 0h4m8 0h4m8 0h4m8 0h4m8 0h2l.94.07.6.15m4.24 4.23l.15.6.07.95v2m0 8.05v4m0 8.05v4.02m0 8.04v4.02m0 8.03v4.03m0 8.04v4.02m0 8.02v4.02m0 8.04v4.02m0 8.04v4m0 8.05v4m0 8.05v4m0 8.05v4.02m0 8.04v4.02m0 8.03v4.03m0 8.04v4.02m0 8.02v4.02m0 8.04v4.02m0 8.04v4m0 8.05v4m0 8.05v4m0 8.05v4.02m0 8.04v4.02m0 8.03v4.03m0 8.04v4.02m0 8.02v4.02m0 8.04v4.02m0 8.03v4.02m0 8.04v4m0 8.05v4.02m0 8.03v4.02m0 8.04v4.02m0 8.03v4.03m0 8.04v4.02m0 8.02v4.02m0 8.04v4.02m0 8.03v4.02m0 8.04v4m0 8.05v4.02m0 8.03v4.02m0 8.04v4.02m0 8.03v4.03m0 8.04v4.02m0 8.02v4.02m0 8.04v4.02m0 8.03v4.02m0 8.04v4m0 8.05v4.02m0 8.03v4.02m0 8.04v4.02m0 8.03v4.03m0 8.04v4.02m0 8.02v4.02m0 8.04v4.02m0 8.03v4.02m0 8.04v4m0 8.05v4.02m0 8.03v4.02m0 8.04v4.02m0 8.03v4.03m0 8.04v4.02m0 8.02v4.02m0 8.04v4.02m0 8.03v4.02m0 8.04v4m0 8.05v4.02m0 8.03v4.02m0 8.04v4.02m0 8.03v4.03m0 8.04v4.02m0 8.02v4.02m0 8.04v4.02m0 8.03v4.02m0 8.04v2l-.07.94-.15.6m-4.23 4.24l-.6.15-.95.07h-2m-8 0h-4m-8 0h-4m-8 0h-4m-8 0h-4m-8 0h-4m-8 0h-4m-8 0h-4m-8 0h-4m-8 0h-4m-8 0h-4m-8 0h-4m-8 0h-4m-8 0h-4m-8 0h-4m-8 0h-4m-8 0h-4m-8 0h-4m-8 0h-4m-8 0h-4m-8 0h-4m-8 0h-4m-8 0h-4m-8 0h-4m-8 0h-4m-8 0h-4m-8 0h-4m-8 0h-4m-8 0h-4m-8 0h-4m-8 0h-4m-8 0h-4m-8 0h-4m-8 0h-4m-8 0h-4m-8 0h-4m-8 0h-4m-8 0h-4m-8 0h-4m-8 0h-4m-8 0h-4m-8 0h-4m-8 0h-4m-8 0h-4m-8 0h-4m-8 0h-4m-8 0h-4m-8 0h-4m-8 0h-4m-8 0h-4m-8 0h-4m-8 0h-4m-8 0h-4m-8 0h-4m-8 0h-4m-8 0h-4m-8 0h-4m-8 0h-4m-8 0h-4m-8 0h-4m-8 0h-4m-8 0h-4m-8 0h-4m-8 0h-4m-8 0h-2l-.94-.07-.6-.15m-4.24-4.23l-.15-.6-.07-.95v-2m0-8.05v-4.02m0-8.03v-4.02m0-8.04v-4.02m0-8.03v-4.03m0-8.04v-4.02m0-8.02v-4.02m0-8.04v-4.02m0-8.03v-4.02m0-8.04v-4m0-8.05v-4.02m0-8.03v-4.02m0-8.04v-4.02m0-8.03v-4.03m0-8.04v-4.02m0-8.02v-4.02m0-8.04v-4.02m0-8.03v-4.02m0-8.04v-4m0-8.05v-4.02m0-8.03v-4.02m0-8.04v-4.02m0-8.03v-4.03m0-8.04v-4.02m0-8.02v-4.02m0-8.04v-4.02m0-8.03v-4.02m0-8.04v-4m0-8.05v-4.02m0-8.03v-4.02m0-8.04v-4.02m0-8.03v-4.03m0-8.04v-4.02m0-8.02v-4.02m0-8.04v-4.02m0-8.03v-4.02m0-8.04v-4m0-8.05v-4.02m0-8.03v-4.02m0-8.04v-4.02m0-8.03v-4.03m0-8.04v-4.02m0-8.02v-4.02m0-8.04v-4.02m0-8.03v-4.02m0-8.04v-4m0-8.05v-4.02m0-8.03v-4.02m0-8.04v-4.02m0-8.03v-4.03m0-8.04v-4.02m0-8.02v-4.02m0-8.04v-4.02m0-8.04v-4m0-8.05v-4m0-8.05v-4m0-8.05v-4.02m0-8.04v-4.02m0-8.03v-4.03m0-8.04v-4.02m0-8.02v-4.02m0-8.04v-4.02m0-8.04v-4m0-8.05v-4m0-8.05v-4m0-8.05v-4.02m0-8.04v-4.02m0-8.03v-4.03m0-8.04v-4.02m0-8.02v-4.02m0-8.04v-4.02m0-8.04v-4m0-8.05v-2l.07-.94.15-.6" stroke="#282c33" stroke-width="2" fill="none"/><path d="M217.47 523.45a6 6 0 0 1 6-6h328a6 6 0 0 1 6 6v77.1a6 6 0 0 1-6 6h-328a6 6 0 0 1-6-6z" fill-opacity="0"/><path d="M235.2 517.45h7.8m7.8 0h7.8m7.82 0h7.8m7.82 0h7.8m7.82 0h7.8m7.82 0h7.8m7.82 0h7.8m7.82 0h7.8m7.82 0h7.8m7.82 0h7.8m7.82 0h7.8m7.82 0h7.8m7.8 0h7.82m7.8 0h7.82m7.8 0h7.82m7.8 0h7.82m7.8 0h7.82m7.8 0h7.82m7.8 0h7.82m7.8 0h7.82m7.8 0h3.9l.95.08.93.22.87.36.8.5.72.6.6.73.5.8.36.87.22.9.07.95v3.86m0 7.72v7.7m0 7.72v7.7m0 7.72v7.7m0 7.7V589m0 7.7v3.87l-.07.94-.22.9-.36.87-.5.8-.6.72-.72.6-.8.5-.87.35-.92.22-.93.08h-3.9m-7.8 0h-7.82m-7.8 0h-7.82m-7.8 0h-7.82m-7.8 0h-7.8m-7.82 0h-7.8m-7.82 0h-7.8m-7.82 0h-7.8m-7.8 0h-7.82m-7.8 0H407m-7.8 0h-7.82m-7.8 0h-7.82m-7.8 0h-7.82m-7.8 0h-7.82m-7.8 0h-7.82m-7.8 0h-7.82m-7.8 0h-7.82m-7.8 0h-7.82m-7.8 0h-7.8m-7.82 0h-7.8m-7.82 0h-7.8m-7.82 0h-3.9l-.95-.08-.9-.22-.88-.36-.8-.5-.72-.6-.6-.73-.5-.8-.36-.87-.22-.9-.08-.95v-3.86m0-7.72v-7.7m0-7.72v-7.7m0-7.72v-7.7m0-7.7V535m0-7.7v-3.87l.08-.94.22-.9.36-.87.5-.8.6-.72.72-.6.8-.5.87-.35.9-.22.95-.08h3.9" stroke="#282c33" stroke-width="2" fill="none"/><path d="M237.47 543.45a6 6 0 0 1 6-6h45.62a6 6 0 0 1 6 6v46.2a6 6 0 0 1-6 6h-45.63a6 6 0 0 1-6-6zM317.47 543.45a6 6 0 0 1 6-6h45.62a6 6 0 0 1 6 6v46.2a6 6 0 0 1-6 6h-45.63a6 6 0 0 1-6-6zM397.47 543.45a6 6 0 0 1 6-6h45.62a6 6 0 0 1 6 6v46.2a6 6 0 0 1-6 6h-45.63a6 6 0 0 1-6-6z" stroke="#282c33" stroke-width="2" fill="#cfe4ff"/><path d="M637.47 516a6 6 0 0 1 6-6h168a6 6 0 0 1 6 6v92a6 6 0 0 1-6 6h-168a6 6 0 0 1-6-6z" stroke="#282c33" stroke-width="2" fill="#fff"/><use xlink:href="#a" transform="matrix(1,0,0,1,649.4725274725268,522) translate(5.104938271604979 47.38888888888888)"/><use xlink:href="#b" transform="matrix(1,0,0,1,649.4725274725268,522) translate(85.38888888888889 47.38888888888888)"/><path d="M477.47 543.45a6 6 0 0 1 6-6h45.62a6 6 0 0 1 6 6v46.2a6 6 0 0 1-6 6h-45.63a6 6 0 0 1-6-6z" fill="#ffe342"/><path d="M498.68 537.45h15.2m7.6 0h7.6l.95.08.92.22.87.36.8.5.7.6.63.73.5.8.35.87.22.9.07.95v7.7m0 7.7v15.4m0 7.7v7.7l-.08.93-.22.92-.36.87-.5.8-.6.72-.72.6-.8.5-.87.35-.92.22-.94.07h-7.6m-7.62 0h-15.2m-7.6 0h-7.6l-.95-.07-.9-.22-.88-.36-.8-.5-.72-.62-.6-.7-.5-.8-.36-.88-.22-.92-.08-.94v-7.7m0-7.7v-15.4m0-7.7v-7.7l.08-.93.22-.9.36-.87.5-.8.6-.72.72-.6.8-.5.87-.35.9-.22.95-.08h7.6" stroke="#282c33" stroke-width="2" fill="none"/><path d="M897.47 538.9a6 6 0 0 1 6-6h45.62a6 6 0 0 1 6 6v46.2a6 6 0 0 1-6 6h-45.63a6 6 0 0 1-6-6z" fill="#fe7070"/><path d="M918.68 532.9h15.2m7.6 0h7.6l.95.08.92.22.87.36.8.5.7.6.63.72.5.8.35.87.22.92.07.93v7.7m0 7.7v15.4m0 7.7v7.7l-.08.93-.22.92-.36.87-.5.8-.6.72-.72.6-.8.5-.87.36-.92.22-.94.08h-7.6m-7.62 0h-15.2m-7.6 0h-7.6l-.95-.08-.9-.22-.88-.36-.8-.5-.72-.6-.6-.72-.5-.8-.36-.87-.22-.92-.08-.93v-7.7m0-7.7v-15.4m0-7.7v-7.7l.08-.93.22-.92.36-.87.5-.8.6-.72.72-.6.8-.5.87-.36.9-.22.95-.08h7.6" stroke="#282c33" stroke-width="2" fill="none"/><path d="M926.28 592.6v48.95a6 6 0 0 1-6 6h-409.5a6 6 0 0 1-6-6v-17.62" stroke="#3a414a" fill="none"/><path d="M926.76 592.6h-.95v-.5h.96z" stroke="#3a414a" stroke-width=".05" fill="#3a414a"/><path d="M504.8 609.17l4.63 14.26h-9.27z" stroke="#3a414a" fill="#3a414a"/><path d="M558.97 562h61.12" stroke="#3a414a" fill="none"/><path d="M559 562.48h-.53v-.96h.5z" stroke="#3a414a" stroke-width=".05" fill="#3a414a"/><path d="M634.86 562l-14.27 4.63v-9.26z" stroke="#3a414a" fill="#3a414a"/><path d="M818.97 562h61.12" stroke="#3a414a" fill="none"/><path d="M819 562.48h-.53v-.96h.5z" stroke="#3a414a" stroke-width=".05" fill="#3a414a"/><path d="M894.86 562l-14.27 4.63v-9.26z" stroke="#3a414a" fill="#3a414a"/><path d="M296.28 1046a6 6 0 0 1 6-6h168a6 6 0 0 1 6 6v77.1a6 6 0 0 1-6 6h-168a6 6 0 0 1-6-6z" fill-opacity="0"/><path d="M313.74 1040h7.63m7.64 0h7.65m7.63 0h7.64m7.63 0h7.64m7.63 0h7.63m7.64 0h7.64m7.63 0H413m7.65 0h7.63m7.64 0h7.63m7.64 0h7.63m7.63 0h3.82l.94.07.92.22.87.35.8.5.72.6.62.72.5.8.35.88.2.9.08.95v3.86m0 7.7v7.7m0 7.72v7.7m0 7.72v7.7m0 7.72v7.7m0 7.72v3.86l-.07.93-.2.92-.37.87-.5.8-.6.72-.72.6-.8.5-.86.36-.92.22-.94.08h-3.82m-7.63 0h-7.64m-7.64 0h-7.64m-7.64 0h-7.63m-7.64 0h-7.63m-7.63 0h-7.64m-7.64 0h-7.63m-7.64 0h-7.64m-7.64 0h-7.64m-7.63 0H329m-7.63 0h-7.63m-7.64 0h-3.82l-.94-.08-.9-.22-.88-.36-.8-.5-.72-.6-.6-.72-.5-.8-.36-.87-.22-.92-.08-.93v-3.86m0-7.7v-7.72m0-7.7v-7.72m0-7.7v-7.72m0-7.7v-7.72m0-7.7V1046l.08-.94.22-.9.36-.88.5-.8.6-.72.7-.6.82-.5.87-.37.9-.23.95-.07h3.82" stroke="#282c33" stroke-width="2" fill="none"/><path d="M217.47 1066a6 6 0 0 1 6-6h45.62a6 6 0 0 1 6 6v46.2a6 6 0 0 1-6 6h-45.63a6 6 0 0 1-6-6zM317.47 1066a6 6 0 0 1 6-6h45.62a6 6 0 0 1 6 6v46.2a6 6 0 0 1-6 6h-45.63a6 6 0 0 1-6-6z" stroke="#282c33" stroke-width="2" fill="#cfe4ff"/><path d="M557.47 1046a6 6 0 0 1 6-6h168a6 6 0 0 1 6 6v77.1a6 6 0 0 1-6 6h-168a6 6 0 0 1-6-6z" stroke="#282c33" stroke-width="2" fill="#fff"/><use xlink:href="#c" transform="matrix(1,0,0,1,569.4725274725267,1052) translate(3.981481481481495 39.326388888888886)"/><use xlink:href="#d" transform="matrix(1,0,0,1,569.4725274725267,1052) translate(101.54938271604937 39.326388888888886)"/><path d="M817.47 1061.45a6 6 0 0 1 6-6h45.62a6 6 0 0 1 6 6v46.2a6 6 0 0 1-6 6h-45.63a6 6 0 0 1-6-6z" fill="#fe7070"/><path d="M838.68 1055.45h15.2m7.6 0h7.6l.95.08.92.22.87.36.8.5.7.6.63.73.5.8.35.87.22.9.07.95v7.7m0 7.7v15.4m0 7.7v7.7l-.08.93-.22.92-.36.87-.5.8-.6.7-.72.63-.8.5-.87.35-.92.22-.94.07h-7.6m-7.62 0h-15.2m-7.6 0h-7.6l-.95-.07-.9-.22-.88-.36-.8-.5-.72-.62-.6-.7-.5-.8-.36-.88-.22-.92-.08-.94v-7.7m0-7.7v-15.4m0-7.7v-7.7l.08-.93.22-.9.36-.87.5-.8.6-.72.72-.6.8-.5.87-.35.9-.22.95-.08h7.6" stroke="#282c33" stroke-width="2" fill="none"/><path d="M477.78 1084.55h62.3" stroke="#3a414a" fill="none"/><path d="M477.8 1085.02h-.52v-.95h.52z" stroke="#3a414a" stroke-width=".05" fill="#3a414a"/><path d="M554.86 1084.55l-14.27 4.63v-9.27z" stroke="#3a414a" fill="#3a414a"/><path d="M738.97 1084.55H800.1" stroke="#3a414a" fill="none"/><path d="M739 1085.02h-.53v-.95h.5z" stroke="#3a414a" stroke-width=".05" fill="#3a414a"/><path d="M814.85 1084.55l-14.26 4.63v-9.27z" stroke="#3a414a" fill="#3a414a"/><path d="M397.47 1066a6 6 0 0 1 6-6h45.62a6 6 0 0 1 6 6v46.2a6 6 0 0 1-6 6h-45.63a6 6 0 0 1-6-6z" stroke="#282c33" stroke-width="2" fill="#cfe4ff"/><path d="M897.47 1061.45a6 6 0 0 1 6-6h45.62a6 6 0 0 1 6 6v46.2a6 6 0 0 1-6 6h-45.63a6 6 0 0 1-6-6z" fill="#fe7070"/><path d="M918.68 1055.45h15.2m7.6 0h7.6l.95.08.92.22.87.36.8.5.7.6.63.73.5.8.35.87.22.9.07.95v7.7m0 7.7v15.4m0 7.7v7.7l-.08.93-.22.92-.36.87-.5.8-.6.7-.72.63-.8.5-.87.35-.92.22-.94.07h-7.6m-7.62 0h-15.2m-7.6 0h-7.6l-.95-.07-.9-.22-.88-.36-.8-.5-.72-.62-.6-.7-.5-.8-.36-.88-.22-.92-.08-.94v-7.7m0-7.7v-15.4m0-7.7v-7.7l.08-.93.22-.9.36-.87.5-.8.6-.72.72-.6.8-.5.87-.35.9-.22.95-.08h7.6" stroke="#282c33" stroke-width="2" fill="none"/><path d="M218.74 726a6 6 0 0 1 6-6h248a6 6 0 0 1 6 6v77.1a6 6 0 0 1-6 6h-248a6 6 0 0 1-6-6z" fill-opacity="0"/><path d="M236.36 720h7.75m7.76 0h7.75m7.76 0h7.75m7.76 0h7.75m7.76 0h7.75m7.76 0h7.75m7.76 0h7.75m7.76 0h7.75m7.76 0h7.75m7.76 0h7.75m7.76 0h7.75m7.76 0h7.75m7.76 0h7.75m7.76 0h7.75m7.76 0h7.75m7.76 0h3.88l.94.07.9.22.88.35.8.5.72.6.6.72.5.8.36.88.22.9.08.95v3.86m0 7.7v7.7m0 7.72v7.7m0 7.72v7.7m0 7.72v7.7m0 7.72v3.86l-.08.93-.22.92-.36.87-.5.8-.6.72-.72.6-.8.5-.87.36-.93.22-.93.08h-3.88m-7.75 0h-7.74m-7.75 0h-7.74m-7.75 0h-7.74m-7.75 0h-7.74m-7.75 0h-7.74m-7.75 0h-7.74m-7.75 0h-7.74m-7.75 0h-7.74m-7.75 0h-7.74m-7.75 0h-7.74m-7.75 0h-7.74m-7.75 0h-7.74m-7.75 0h-7.74m-7.75 0h-7.74m-7.75 0h-7.74m-7.75 0h-3.86l-.94-.08-.92-.22-.87-.36-.8-.5-.7-.6-.62-.72-.5-.8-.35-.87-.22-.92-.06-.93v-3.86m0-7.7v-7.72m0-7.7v-7.72m0-7.7v-7.72m0-7.7v-7.72m0-7.7V726l.07-.94.23-.9.36-.88.48-.8.6-.72.73-.6.8-.5.88-.37.92-.23.94-.07h3.87" stroke="#282c33" stroke-width="2" fill="none"/><path d="M238.74 746a6 6 0 0 1 6-6h45.62a6 6 0 0 1 6 6v46.2a6 6 0 0 1-6 6h-45.62a6 6 0 0 1-6-6zM318.74 746a6 6 0 0 1 6-6h45.62a6 6 0 0 1 6 6v46.2a6 6 0 0 1-6 6h-45.62a6 6 0 0 1-6-6zM398.74 746a6 6 0 0 1 6-6h45.62a6 6 0 0 1 6 6v46.2a6 6 0 0 1-6 6h-45.62a6 6 0 0 1-6-6z" stroke="#282c33" stroke-width="2" fill="#cfe4ff"/><path d="M558.74 726a6 6 0 0 1 6-6h168a6 6 0 0 1 6 6v77.1a6 6 0 0 1-6 6h-168a6 6 0 0 1-6-6z" stroke="#282c33" stroke-width="2" fill="#fff"/><use xlink:href="#e" transform="matrix(1,0,0,1,570.7362637362635,732) translate(5.5370370370370665 39.326388888888886)"/><use xlink:href="#f" transform="matrix(1,0,0,1,570.7362637362635,732) translate(84.9567901234568 39.326388888888886)"/><path d="M480.24 764.55h61.1" stroke="#3a414a" fill="none"/><path d="M480.25 765.02h-.5v-.95h.5z" stroke="#3a414a" stroke-width=".05" fill="#3a414a"/><path d="M556.12 764.55l-14.27 4.63v-9.27z" stroke="#3a414a" fill="#3a414a"/><path d="M548.74 846.8a6 6 0 0 1 6-6h188a6 6 0 0 1 6 6v108a6 6 0 0 1-6 6h-188a6 6 0 0 1-6-6z" fill-opacity="0"/><path d="M566.5 840.8h7.82m7.83 0H590m7.82 0h7.83m7.84 0h7.82m7.83 0H637m7.82 0h7.83m7.84 0h7.82m7.83 0H684m7.82 0h7.83m7.84 0h7.82m7.83 0H731m7.82 0h3.92l.93.08.92.22.86.36.8.5.72.6.6.72.5.8.36.88.22.9.08.95v3.87m0 7.7v7.73m0 7.7v7.72m0 7.72v7.7m0 7.73v7.7m0 7.73v7.7m0 7.72v7.72m0 7.7v3.87l-.08.95-.22.9-.36.88-.5.8-.6.72-.72.6-.8.5-.87.37-.93.22-.93.07h-3.92m-7.83 0h-7.85m-7.83 0h-7.83m-7.85 0h-7.83m-7.83 0h-7.85m-7.83 0h-7.83m-7.85 0h-7.83m-7.83 0h-7.85m-7.83 0h-7.83m-7.85 0h-7.83m-7.83 0h-7.85m-7.83 0h-7.83m-7.85 0h-3.9l-.95-.06-.92-.22-.87-.36-.8-.5-.7-.6-.62-.72-.5-.8-.35-.88-.22-.9-.06-.95v-3.85m0-7.7v-7.73m0-7.7v-7.73m0-7.72v-7.7m0-7.73v-7.7m0-7.73v-7.7m0-7.73v-7.72m0-7.7v-3.87l.07-.93.23-.9.36-.88.48-.82.6-.7.73-.62.8-.5.88-.36.92-.22.94-.07h3.9" stroke="#282c33" stroke-width="2" fill="none"/><path d="M564.12 861.5a6 6 0 0 1 6-6h32.32a6 6 0 0 1 6 6v30.75a6 6 0 0 1-6 6h-32.32a6 6 0 0 1-6-6zM625.66 861.5a6 6 0 0 1 6-6h32.32a6 6 0 0 1 6 6v30.75a6 6 0 0 1-6 6h-32.32a6 6 0 0 1-6-6zM687.2 861.5a6 6 0 0 1 6-6h32.32a6 6 0 0 1 6 6v30.75a6 6 0 0 1-6 6H693.2a6 6 0 0 1-6-6zM564.12 912.26a6 6 0 0 1 6-6h32.32a6 6 0 0 1 6 6V943a6 6 0 0 1-6 6h-32.32a6 6 0 0 1-6-6zM626.58 912.26a6 6 0 0 1 6-6h32.32a6 6 0 0 1 6 6V943a6 6 0 0 1-6 6h-32.32a6 6 0 0 1-6-6zM689.03 912.26a6 6 0 0 1 6-6h32.32a6 6 0 0 1 6 6V943a6 6 0 0 1-6 6h-32.32a6 6 0 0 1-6-6z" stroke="#282c33" stroke-width="2" fill="#ffe342"/><path d="M648.74 810.6v12.83" stroke="#3a414a" fill="none"/><path d="M649.2 810.6h-.94v-.5h.95z" stroke="#3a414a" stroke-width=".05" fill="#3a414a"/><path d="M648.74 838.2l-4.64-14.27h9.27z" stroke="#3a414a" fill="#3a414a"/><path d="M427.55 799.7v94.5a6 6 0 0 0 6 6h97.8" stroke="#3a414a" fill="none"/><path d="M428.02 799.7h-.95v-.5h.95z" stroke="#3a414a" stroke-width=".05" fill="#3a414a"/><path d="M546.12 900.2l-14.27 4.63v-9.28z" stroke="#3a414a" fill="#3a414a"/><path d="M827.74 877.7a6 6 0 0 1 6-6h45.62a6 6 0 0 1 6 6v46.2a6 6 0 0 1-6 6h-45.62a6 6 0 0 1-6-6z" fill="#fe7070"/><path d="M848.94 871.7h15.2m7.6 0h7.62l.93.1.9.2.88.37.8.5.72.6.6.72.5.8.36.86.22.92.08.93v7.7m0 7.7v15.4m0 7.7v7.7l-.08.94-.22.92-.36.87-.5.8-.6.72-.72.6-.8.5-.87.36-.9.23-.94.07h-7.6m-7.6 0h-15.22m-7.6 0h-7.6l-.94-.07-.92-.22-.87-.35-.8-.5-.7-.6-.62-.72-.5-.8-.35-.87-.22-.92-.06-.94v-7.7m0-7.7v-15.4m0-7.7v-7.7l.07-.92.23-.92.36-.87.48-.8.6-.73.73-.6.8-.5.88-.36.92-.2.94-.1h7.6" stroke="#282c33" stroke-width="2" fill="none"/><path d="M749.24 900.8h61.1M749.25 900.8h-.5" stroke="#3a414a" fill="none"/><path d="M825.12 900.8l-14.27 4.65v-9.28z" stroke="#3a414a" fill="#3a414a"/><path d="M900 877.7a6 6 0 0 1 6-6h45.62a6 6 0 0 1 6 6v46.2a6 6 0 0 1-6 6H906a6 6 0 0 1-6-6z" fill="#fe7070"/><path d="M921.2 871.7h15.2m7.62 0h7.6l.94.1.9.2.88.37.8.5.72.6.6.72.5.8.37.86.2.92.1.93v7.7m0 7.7v15.4m0 7.7v7.7l-.1.94-.2.92-.37.87-.5.8-.6.72-.7.6-.82.5-.87.36-.9.23-.95.07h-7.6m-7.6 0h-15.2m-7.62 0H906l-.94-.07-.9-.22-.88-.35-.8-.5-.72-.6-.6-.72-.5-.8-.37-.87-.23-.92-.07-.94v-7.7m0-7.7v-15.4m0-7.7v-7.7l.07-.92.22-.92.35-.87.5-.8.6-.73.72-.6.8-.5.88-.36.9-.2.95-.1h7.6" stroke="#282c33" stroke-width="2" fill="none"/><path d="M1100 358.55a6 6 0 0 1 6-6h168a6 6 0 0 1 6 6v77.1a6 6 0 0 1-6 6h-168a6 6 0 0 1-6-6z" fill-opacity="0"/><path d="M1117.45 352.55h7.64m7.63 0h7.63m7.64 0h7.64m7.63 0h7.64m7.64 0h7.64m7.64 0h7.63m7.64 0h7.63m7.63 0h7.64m7.64 0h7.63m7.64 0h7.64m7.64 0h3.82l.94.07.9.22.88.36.8.5.72.6.6.72.5.8.37.87.23.9.07.95v3.85m0 7.7v7.72m0 7.7v7.72m0 7.7v7.72m0 7.7v7.72m0 7.7v3.86l-.07.94-.22.92-.35.87-.5.8-.6.7-.72.63-.8.5-.88.35-.9.22-.95.07h-3.82m-7.63 0h-7.64m-7.63 0h-7.63m-7.64 0h-7.64m-7.63 0h-7.64m-7.64 0h-7.64m-7.64 0h-7.63m-7.64 0h-7.63m-7.63 0H1148m-7.64 0h-7.63m-7.64 0h-7.64m-7.64 0H1106l-.94-.07-.9-.22-.88-.36-.8-.5-.72-.62-.6-.7-.5-.8-.37-.88-.23-.92-.07-.94v-3.85m0-7.72v-7.7m0-7.72v-7.7m0-7.72v-7.7m0-7.72v-7.7m0-7.72v-3.85l.07-.94.22-.9.35-.88.5-.8.6-.7.72-.63.8-.5.88-.36.9-.22.95-.07h3.82" stroke="#282c33" stroke-width="2" fill="none"/><path d="M1020 378.55a6 6 0 0 1 6-6h45.62a6 6 0 0 1 6 6v46.2a6 6 0 0 1-6 6H1026a6 6 0 0 1-6-6zM1120 378.55a6 6 0 0 1 6-6h45.62a6 6 0 0 1 6 6v46.2a6 6 0 0 1-6 6H1126a6 6 0 0 1-6-6zM1200 378.55a6 6 0 0 1 6-6h45.62a6 6 0 0 1 6 6v46.2a6 6 0 0 1-6 6H1206a6 6 0 0 1-6-6z" stroke="#282c33" stroke-width="2" fill="#cfe4ff"/><path d="M1102 494.57a6 6 0 0 1 6-6h168a6 6 0 0 1 6 6v86.67a6 6 0 0 1-6 6h-168a6 6 0 0 1-6-6z" fill="#d7faf5"/><path d="M1119.45 488.57h7.64m7.63 0h7.63m7.64 0h7.64m7.63 0h7.64m7.64 0h7.64m7.64 0h7.63m7.64 0h7.63m7.63 0h7.64m7.64 0h7.63m7.64 0h7.64m7.64 0h3.82l.94.08.9.22.88.36.8.5.72.6.6.72.5.8.37.87.23.92.07.93v4.34m0 8.67v8.67m0 8.67v8.67m0 8.67v8.67m0 8.67v8.67m0 8.67v4.34l-.07.94-.22.92-.35.87-.5.8-.6.7-.72.63-.8.5-.88.35-.9.22-.95.07h-3.82m-7.63 0h-7.64m-7.63 0h-7.63m-7.64 0h-7.64m-7.63 0h-7.64m-7.64 0h-7.64m-7.64 0h-7.63m-7.64 0h-7.63m-7.63 0H1150m-7.64 0h-7.63m-7.64 0h-7.64m-7.64 0H1108l-.94-.07-.9-.22-.88-.36-.8-.5-.72-.62-.6-.7-.5-.8-.37-.88-.23-.92-.07-.94v-4.33m0-8.66v-8.67m0-8.66v-8.66m0-8.67v-8.66m0-8.66v-8.67m0-8.66v-4.33l.07-.93.22-.92.35-.87.5-.8.6-.72.72-.6.8-.5.88-.36.9-.22.95-.08h3.82" stroke="#282c33" stroke-width="2" fill="none"/><use xlink:href="#g" transform="matrix(1,0,0,1,1113.9999999999995,500.57411597844526) translate(22.60493827160495 27.232638888888886)"/><use xlink:href="#h" transform="matrix(1,0,0,1,1113.9999999999995,500.57411597844526) translate(35.74074074074075 64.56597222222221)"/><path d="M1407.36 668.28a6 6 0 0 1 6-6h107.8a6 6 0 0 1 6 6v38.76a6 6 0 0 1-6 6h-107.8a6 6 0 0 1-6-6z" stroke="#282c33" stroke-width="2" fill="#edf5ff"/><use xlink:href="#i" transform="matrix(1,0,0,1,1412.3553613553104,667.2798165668291) translate(7.283950617283949 25.46527777777778)"/><use xlink:href="#j" transform="matrix(1,0,0,1,1412.3553613553104,667.2798165668291) translate(47.28395061728395 25.46527777777778)"/><path d="M1467.26 714.54v45.34" stroke="#3a414a" fill="none"/><path d="M1467.73 714.55h-.94v-.5h.93z" stroke="#3a414a" stroke-width=".05" fill="#3a414a"/><path d="M1467.26 774.65l-4.63-14.27h9.26z" stroke="#3a414a" fill="#3a414a"/><path d="M1407.36 783.27a6 6 0 0 1 6-6h107.8a6 6 0 0 1 6 6v38.76a6 6 0 0 1-6 6h-107.8a6 6 0 0 1-6-6z" stroke="#282c33" stroke-width="2" fill="#edf5ff"/><use xlink:href="#k" transform="matrix(1,0,0,1,1412.3553613553104,782.2656379786256) translate(17.098765432098766 25.46527777777778)"/><use xlink:href="#l" transform="matrix(1,0,0,1,1412.3553613553104,782.2656379786256) translate(78.08641975308642 25.46527777777778)"/><path d="M1410.44 828.77l-37.38 17.18" stroke="#3a414a" fill="none"/><path d="M1411.2 828.7l.36.08-.94.43-.4-.85.07-.03z" stroke="#3a414a" stroke-width=".05" fill="#3a414a"/><path d="M1359.65 852.12l11.02-10.17 3.88 8.42z" stroke="#3a414a" fill="#3a414a"/><path d="M1241.9 859.33a6 6 0 0 1 6-6h107.8a6 6 0 0 1 6 6v38.76a6 6 0 0 1-6 6h-107.8a6 6 0 0 1-6-6z" stroke="#282c33" stroke-width="2" fill="#edf5ff"/><use xlink:href="#m" transform="matrix(1,0,0,1,1246.904736904762,858.3338562381855) translate(31.265432098765434 25.46527777777778)"/><use xlink:href="#n" transform="matrix(1,0,0,1,1246.904736904762,858.3338562381855) translate(51.6358024691358 25.46527777777778)"/><path d="M1522.36 829.2l33.4 16.08" stroke="#3a414a" fill="none"/><path d="M1522.17 829.62l-1.24-.6h.27l1.06-.08.27-.06z" stroke="#3a414a" stroke-width=".05" fill="#3a414a"/><path d="M1569.08 851.7l-14.87-2.03 4.03-8.35z" stroke="#3a414a" fill="#3a414a"/><path d="M1565.28 859.33a6 6 0 0 1 6-6h107.8a6 6 0 0 1 6 6v38.76a6 6 0 0 1-6 6h-107.8a6 6 0 0 1-6-6z" stroke="#282c33" stroke-width="2" fill="#edf5ff"/><use xlink:href="#m" transform="matrix(1,0,0,1,1570.2821012820505,858.3338562381855) translate(39.907407407407405 25.46527777777778)"/><use xlink:href="#o" transform="matrix(1,0,0,1,1570.2821012820505,858.3338562381855) translate(60.27777777777777 25.46527777777778)"/><path d="M1261.88 905.37l-26.75 17.87" stroke="#3a414a" fill="none"/><path d="M1262.14 905.77l-.46-.67h1.48z" stroke="#3a414a" stroke-width=".05" fill="#3a414a"/><path d="M1222.85 931.43l9.3-11.77 5.14 7.7z" stroke="#3a414a" fill="#3a414a"/><path d="M1122.1 939.33a6 6 0 0 1 6-6h107.8a6 6 0 0 1 6 6v38.76a6 6 0 0 1-6 6h-107.8a6 6 0 0 1-6-6z" stroke="#282c33" stroke-width="2" fill="#edf5ff"/><use xlink:href="#p" transform="matrix(1,0,0,1,1127.0952630952374,938.3338562381855) translate(20.80246913580247 25.46527777777778)"/><use xlink:href="#q" transform="matrix(1,0,0,1,1127.0952630952374,938.3338562381855) translate(53.45679012345679 25.46527777777778)"/><path d="M1301.8 905.6v10.35" stroke="#3a414a" fill="none"/><path d="M1302.28 905.6h-.95v-.5h.95z" stroke="#3a414a" stroke-width=".05" fill="#3a414a"/><path d="M1301.8 930.72l-4.63-14.27h9.27z" stroke="#3a414a" fill="#3a414a"/><path d="M1241.9 939.33a6 6 0 0 1 6-6h107.8a6 6 0 0 1 6 6v38.76a6 6 0 0 1-6 6h-107.8a6 6 0 0 1-6-6z" stroke="#282c33" stroke-width="2" fill="#edf5ff"/><use xlink:href="#p" transform="matrix(1,0,0,1,1246.904736904762,938.3338562381855) translate(6.6049382716049365 25.46527777777778)"/><use xlink:href="#r" transform="matrix(1,0,0,1,1246.904736904762,938.3338562381855) translate(39.25925925925926 25.46527777777778)"/><path d="M1342.4 905.37l27.35 17.97" stroke="#3a414a" fill="none"/><path d="M1342.14 905.77l-1.03-.67h1.5z" stroke="#3a414a" stroke-width=".05" fill="#3a414a"/><path d="M1382.1 931.45l-14.48-3.96 5.1-7.76z" stroke="#3a414a" fill="#3a414a"/><path d="M1363.7 939.33a6 6 0 0 1 6-6h107.82a6 6 0 0 1 6 6v38.76a6 6 0 0 1-6 6H1369.7a6 6 0 0 1-6-6z" stroke="#282c33" stroke-width="2" fill="#edf5ff"/><use xlink:href="#p" transform="matrix(1,0,0,1,1368.7052282051272,938.3338562381855) translate(4.228395061728392 25.46527777777778)"/><use xlink:href="#s" transform="matrix(1,0,0,1,1368.7052282051272,938.3338562381855) translate(36.882716049382715 25.46527777777778)"/><path d="M1625.2 905.6v10.35" stroke="#3a414a" fill="none"/><path d="M1625.66 905.6h-.95v-.5h.96z" stroke="#3a414a" stroke-width=".05" fill="#3a414a"/><path d="M1625.2 930.72l-4.65-14.27h9.27z" stroke="#3a414a" fill="#3a414a"/><path d="M1565.28 939.33a6 6 0 0 1 6-6h107.8a6 6 0 0 1 6 6v38.76a6 6 0 0 1-6 6h-107.8a6 6 0 0 1-6-6z" stroke="#282c33" stroke-width="2" fill="#edf5ff"/><use xlink:href="#t" transform="matrix(1,0,0,1,1570.2821012820505,938.3338562381855) translate(11.882716049382715 25.46527777777778)"/><path d="M1020 646a6 6 0 0 1 6-6h321.4a6 6 0 0 1 6 6v78a6 6 0 0 1-6 6H1026a6 6 0 0 1-6-6z" stroke="#000" stroke-opacity="0" stroke-width="2" fill="#fff" fill-opacity="0"/><use xlink:href="#u" transform="matrix(1,0,0,1,1025,645) translate(16.814814814814866 46.66666666666666)"/><use xlink:href="#v" transform="matrix(1,0,0,1,1025,645) translate(82.3703703703704 46.66666666666666)"/><use xlink:href="#w" transform="matrix(1,0,0,1,1025,645) translate(107.37037037037038 46.66666666666666)"/><use xlink:href="#x" transform="matrix(1,0,0,1,1025,645) translate(202.64814814814812 46.66666666666666)"/><use xlink:href="#y" transform="matrix(1,0,0,1,1025,645) translate(238.66666666666663 46.66666666666666)"/><path d="M990.24 763.65a6 6 0 0 1 6-6h228a6 6 0 0 1 6 6v78a6 6 0 0 1-6 6h-228a6 6 0 0 1-6-6z" stroke="#000" stroke-opacity="0" stroke-width="2" fill="#fff" fill-opacity="0"/><use xlink:href="#z" transform="matrix(1,0,0,1,995.2429981219466,762.6463289071519) translate(69.67592592592594 29.166666666666657)"/><use xlink:href="#A" transform="matrix(1,0,0,1,995.2429981219466,762.6463289071519) translate(41.89814814814818 69.16666666666664)"/><path d="M1041.5 754.32h637" fill="none"/><path d="M1041.5 754.32h3.03m12.14 0h6.06m12.14 0h6.06m12.14 0h6.06m12.14 0h6.06m12.14 0h6.06m12.14 0h6.06m12.14 0h6.06m12.14 0h6.06m12.14 0h6.06m12.14 0h6.06m12.14 0h6.06m12.14 0h6.06m12.14 0h6.06m12.14 0h6.06m12.14 0h6.06m12.14 0h6.06m12.14 0h6.06m12.14 0h6.06m12.14 0h6.06m12.14 0h6.06m12.14 0h6.06m12.14 0h6.06m12.14 0h6.06m12.14 0h6.06m12.14 0h6.06m12.14 0h6.06m12.14 0h6.06m12.14 0h6.06m12.14 0h6.06m12.14 0h6.06m12.14 0h6.06m12.14 0h6.06m12.14 0h6.06m12.14 0h6.06m12.14 0h3.03" stroke="#282c33" stroke-width="3" stroke-linecap="round" fill="none"/><path d="M466.28 986a6 6 0 0 1 6-6h228a6 6 0 0 1 6 6v48a6 6 0 0 1-6 6h-228a6 6 0 0 1-6-6z" stroke="#000" stroke-opacity="0" stroke-width="2" fill="#fff" fill-opacity="0"/><use xlink:href="#B" transform="matrix(1,0,0,1,471.2820512820508,985) translate(71.5277777777778 32.91666666666666)"/><path d="M477.47 675.1a6 6 0 0 1 6-6h228a6 6 0 0 1 6 6v48a6 6 0 0 1-6 6h-228a6 6 0 0 1-6-6z" stroke="#000" stroke-opacity="0" stroke-width="2" fill="#fff" fill-opacity="0"/><use xlink:href="#C" transform="matrix(1,0,0,1,482.47252747252696,674.0952380952381) translate(35.4166666666667 32.91666666666666)"/><path d="M437.47 446a6 6 0 0 1 6-6h328a6 6 0 0 1 6 6v78a6 6 0 0 1-6 6h-328a6 6 0 0 1-6-6z" stroke="#000" stroke-opacity="0" stroke-width="2" fill="#fff" fill-opacity="0"/><use xlink:href="#D" transform="matrix(1,0,0,1,442.47252747252685,445) translate(13.009259259259295 46.66666666666666)"/><use xlink:href="#E" transform="matrix(1,0,0,1,442.47252747252685,445) translate(183.9351851851852 46.66666666666666)"/><path d="M1160 266a6 6 0 0 1 6-6h328a6 6 0 0 1 6 6v78a6 6 0 0 1-6 6h-328a6 6 0 0 1-6-6z" stroke="#000" stroke-opacity="0" stroke-width="2" fill="#fff" fill-opacity="0"/><use xlink:href="#F" transform="matrix(1,0,0,1,1165,265) translate(128.9351851851852 46.66666666666666)"/><path d="M217.47 1166a6 6 0 0 1 6-6h45.62a6 6 0 0 1 6 6v46.2a6 6 0 0 1-6 6h-45.63a6 6 0 0 1-6-6z" stroke="#282c33" stroke-width="2" fill="#cfe4ff"/><path d="M280 1166a6 6 0 0 1 6-6h228a6 6 0 0 1 6 6v48a6 6 0 0 1-6 6H286a6 6 0 0 1-6-6z" stroke="#000" stroke-opacity="0" stroke-width="2" fill="#fff" fill-opacity="0"/><use xlink:href="#G" transform="matrix(1,0,0,1,285,1165) translate(39.48765432098767 29.36111111111111)"/><use xlink:href="#H" transform="matrix(1,0,0,1,285,1165) translate(107.61728395061729 29.36111111111111)"/><path d="M766.55 1165.1a6 6 0 0 1 6-6h45.62a6 6 0 0 1 6 6v46.2a6 6 0 0 1-6 6h-45.62a6 6 0 0 1-6-6z" fill="#fe7070"/><path d="M787.75 1159.1h15.2m7.6 0h7.62l.93.07.92.22.87.35.8.5.7.6.62.72.5.8.35.87.22.92.06.93v7.7m0 7.7v15.4m0 7.7v7.7l-.07.92-.23.92-.36.87-.48.8-.6.73-.73.6-.8.5-.88.36-.92.2-.94.1h-7.6m-7.6 0h-15.2m-7.6 0h-7.6l-.95-.1-.9-.2-.88-.37-.8-.5-.72-.6-.6-.72-.5-.8-.36-.86-.22-.92-.07-.93v-7.7m0-7.7v-15.4m0-7.7v-7.7l.07-.94.22-.92.36-.87.5-.8.6-.72.72-.6.8-.5.87-.36.9-.23.95-.08h7.6" stroke="#282c33" stroke-width="2" fill="none"/><path d="M824.16 1155.43a6 6 0 0 1 6-6h309.2a6 6 0 0 1 6 6v67.33a6 6 0 0 1-6 6h-309.2a6 6 0 0 1-6-6z" stroke="#000" stroke-opacity="0" stroke-width="2" fill="#fff" fill-opacity="0"/><use xlink:href="#I" transform="matrix(1,0,0,1,829.1648851648345,1154.4285714285716) translate(17.854938271604965 40.611111111111114)"/><use xlink:href="#J" transform="matrix(1,0,0,1,829.1648851648345,1154.4285714285716) translate(85.74382716049385 40.611111111111114)"/><use xlink:href="#K" transform="matrix(1,0,0,1,829.1648851648345,1154.4285714285716) translate(175.86111111111111 40.611111111111114)"/><path d="M1361.7 1173.72a6 6 0 0 1 6-6h32.34a6 6 0 0 1 6 6v30.75a6 6 0 0 1-6 6h-32.33a6 6 0 0 1-6-6z" stroke="#282c33" stroke-width="2" fill="#ffe342"/><path d="M1398.07 1155.43a6 6 0 0 1 6-6h309.2a6 6 0 0 1 6 6v67.33a6 6 0 0 1-6 6h-309.2a6 6 0 0 1-6-6z" stroke="#000" stroke-opacity="0" stroke-width="2" fill="#fff" fill-opacity="0"/><use xlink:href="#L" transform="matrix(1,0,0,1,1403.0695220695977,1154.4285714285716) translate(37.11419753086419 40.611111111111114)"/><use xlink:href="#M" transform="matrix(1,0,0,1,1403.0695220695977,1154.4285714285716) translate(189.90432098765433 40.611111111111114)"/><path d="M1349.82 358.55a6 6 0 0 1 6-6h135.58a6 6 0 0 1 6 6v77.1a6 6 0 0 1-6 6h-135.58a6 6 0 0 1-6-6z" stroke="#282c33" stroke-width="2" fill="#fff"/><use xlink:href="#N" transform="matrix(1,0,0,1,1361.8217868822494,364.54761904761904) translate(19.697530864197546 39.32638888888888)"/><path d="M1281.5 397.1h50.94" stroke="#3a414a" fill="none"/><path d="M1281.5 397.57h-.5v-.95h.5z" stroke="#3a414a" stroke-width=".05" fill="#3a414a"/><path d="M1347.2 397.1l-14.26 4.63v-9.27z" stroke="#3a414a" fill="#3a414a"/><path d="M1283.5 537.9h134.1a6 6 0 0 0 6-6v-72.87" stroke="#3a414a" fill="none"/><path d="M1283.5 538.38h-.5v-.95h.5z" stroke="#3a414a" stroke-width=".05" fill="#3a414a"/><path d="M1423.6 444.26l4.64 14.27h-9.27z" stroke="#3a414a" fill="#3a414a"/><path d="M1560 374a6 6 0 0 1 6-6h45.62a6 6 0 0 1 6 6v46.2a6 6 0 0 1-6 6H1566a6 6 0 0 1-6-6z" fill="#fe7070"/><path d="M1581.2 368h15.2m7.62 0h7.6l.94.07.9.22.88.35.8.5.72.6.6.72.5.8.37.88.22.9.07.95v7.7m0 7.7v15.4m0 7.7v7.7l-.07.93-.22.92-.37.86-.5.82-.6.7-.7.63-.82.5-.87.35-.9.22-.95.07h-7.6m-7.6 0h-15.2m-7.62 0h-7.6l-.94-.08-.9-.22-.88-.36-.8-.5-.72-.6-.6-.72-.5-.8-.37-.88-.23-.9-.07-.95v-7.7m0-7.7v-15.4m0-7.7V374l.07-.94.22-.9.35-.88.5-.8.6-.72.72-.6.8-.5.88-.37.9-.23.95-.07h7.6" stroke="#282c33" stroke-width="2" fill="none"/><path d="M1640 374a6 6 0 0 1 6-6h45.62a6 6 0 0 1 6 6v46.2a6 6 0 0 1-6 6H1646a6 6 0 0 1-6-6z" fill="#fe7070"/><path d="M1661.2 368h15.2m7.62 0h7.6l.94.07.9.22.88.35.8.5.72.6.6.72.5.8.37.88.22.9.07.95v7.7m0 7.7v15.4m0 7.7v7.7l-.07.93-.22.92-.37.86-.5.82-.6.7-.7.63-.82.5-.87.35-.9.22-.95.07h-7.6m-7.6 0h-15.2m-7.62 0h-7.6l-.94-.08-.9-.22-.88-.36-.8-.5-.72-.6-.6-.72-.5-.8-.37-.88-.23-.9-.07-.95v-7.7m0-7.7v-15.4m0-7.7V374l.07-.94.22-.9.35-.88.5-.8.6-.72.72-.6.8-.5.88-.37.9-.23.95-.07h7.6" stroke="#282c33" stroke-width="2" fill="none"/><path d="M1498.9 397.1h43.72" stroke="#3a414a" fill="none"/><path d="M1498.9 397.57h-.5v-.95h.5z" stroke="#3a414a" stroke-width=".05" fill="#3a414a"/><path d="M1557.38 397.1l-14.26 4.63v-9.27z" stroke="#3a414a" fill="#3a414a"/><path d="M1164.96 1079.33a6 6 0 0 1 6-6h203.96a6 6 0 0 1 6 6v38.77a6 6 0 0 1-6 6h-203.96a6 6 0 0 1-6-6z" stroke="#282c33" stroke-width="2" fill="#edf5ff"/><use xlink:href="#i" transform="matrix(1,0,0,1,1169.9622117200831,1078.3338562381855) translate(8.12345679012347 25.46527777777778)"/><use xlink:href="#O" transform="matrix(1,0,0,1,1169.9622117200831,1078.3338562381855) translate(48.12345679012347 25.46527777777778)"/><use xlink:href="#P" transform="matrix(1,0,0,1,1169.9622117200831,1078.3338562381855) translate(109.11111111111111 25.46527777777778)"/><use xlink:href="#Q" transform="matrix(1,0,0,1,1169.9622117200831,1078.3338562381855) translate(129.48148148148147 25.46527777777778)"/><use xlink:href="#q" transform="matrix(1,0,0,1,1169.9622117200831,1078.3338562381855) translate(162.1358024691358 25.46527777777778)"/><path d="M1429.86 1079.33a6 6 0 0 1 6-6h243.23a6 6 0 0 1 6 6v38.77a6 6 0 0 1-6 6h-243.24a6 6 0 0 1-6-6z" stroke="#282c33" stroke-width="2" fill="#edf5ff"/><g><use xlink:href="#i" transform="matrix(1,0,0,1,1434.8569639286386,1078.3338562381855) translate(8.740740740740733 25.46527777777778)"/><use xlink:href="#O" transform="matrix(1,0,0,1,1434.8569639286386,1078.3338562381855) translate(48.74074074074073 25.46527777777778)"/><use xlink:href="#R" transform="matrix(1,0,0,1,1434.8569639286386,1078.3338562381855) translate(109.72839506172838 25.46527777777778)"/><use xlink:href="#S" transform="matrix(1,0,0,1,1434.8569639286386,1078.3338562381855) translate(135.6543209876543 25.46527777777778)"/><use xlink:href="#T" transform="matrix(1,0,0,1,1434.8569639286386,1078.3338562381855) translate(151.02469135802468 25.46527777777778)"/></g><path d="M1380 1079.33a6 6 0 0 1 6-6h37.86a6 6 0 0 1 6 6v38.77a6 6 0 0 1-6 6H1386a6 6 0 0 1-6-6z" stroke="#282c33" stroke-width="2" fill="#edf5ff"/><g><use xlink:href="#U" transform="matrix(1,0,0,1,1385,1078.3338562381855) translate(11.666666666666668 25.46527777777778)"/></g><path d="M977.47 1066a6 6 0 0 1 6-6H1194a6 6 0 0 1 6 6v48a6 6 0 0 1-6 6H983.47a6 6 0 0 1-6-6z" stroke="#000" stroke-opacity="0" stroke-width="2" fill="#fff" fill-opacity="0"/><g><use xlink:href="#V" transform="matrix(1,0,0,1,982.4725274725271,1065) translate(60.25000000000002 32.91666666666666)"/></g><path d="M1041.5 1041.5h637" fill="none"/><path d="M1041.5 1041.5h3.03m12.14 0h6.06m12.14 0h6.06m12.14 0h6.06m12.14 0h6.06m12.14 0h6.06m12.14 0h6.06m12.14 0h6.06m12.14 0h6.06m12.14 0h6.06m12.14 0h6.06m12.14 0h6.06m12.14 0h6.06m12.14 0h6.06m12.14 0h6.06m12.14 0h6.06m12.14 0h6.06m12.14 0h6.06m12.14 0h6.06m12.14 0h6.06m12.14 0h6.06m12.14 0h6.06m12.14 0h6.06m12.14 0h6.06m12.14 0h6.06m12.14 0h6.06m12.14 0h6.06m12.14 0h6.06m12.14 0h6.06m12.14 0h6.06m12.14 0h6.06m12.14 0h6.06m12.14 0h6.06m12.14 0h6.06m12.14 0h6.06m12.14 0h3.03" stroke="#282c33" stroke-width="3" stroke-linecap="round" fill="none"/><path d="M217.47 347.85a6 6 0 0 1 6-6h248.3a6 6 0 0 1 6 6v77.1a6 6 0 0 1-6 6h-248.3a6 6 0 0 1-6-6z" fill-opacity="0"/><path d="M235.1 341.85h7.77m7.76 0h7.76m7.75 0h7.76m7.77 0h7.76m7.76 0h7.75m7.76 0h7.77m7.76 0H336m7.75 0h7.75m7.76 0h7.76m7.76 0h7.76m7.76 0h7.76m7.76 0h7.76m7.76 0h7.76m7.76 0h7.76m7.76 0h7.76m7.76 0h3.88l.94.07.9.22.88.36.8.5.72.6.6.72.5.8.36.88.22.9.08.95v3.85m0 7.7v7.72m0 7.7v7.72m0 7.7v7.72m0 7.7v7.72m0 7.7v3.87l-.08.93-.22.92-.36.87-.5.8-.6.72-.72.6-.8.5-.87.35-.9.22-.95.07h-3.88m-7.76 0h-7.76m-7.76 0h-7.76m-7.76 0h-7.76m-7.76 0h-7.76m-7.76 0h-7.76m-7.76 0h-7.76m-7.76 0h-7.76m-7.75 0h-7.75m-7.76 0h-7.77m-7.76 0h-7.76m-7.75 0h-7.76m-7.77 0h-7.76m-7.76 0h-7.75m-7.76 0h-7.77m-7.76 0h-7.76m-7.75 0h-3.88l-.94-.07-.9-.22-.88-.36-.8-.5-.72-.6-.6-.73-.5-.8-.36-.87-.22-.92-.08-.94v-3.85m0-7.72v-7.7m0-7.72v-7.7m0-7.72v-7.7m0-7.72v-7.7m0-7.72v-3.85l.08-.94.22-.9.36-.87.5-.8.6-.72.72-.6.8-.5.87-.36.9-.22.95-.07h3.88" stroke="#282c33" stroke-width="2" fill="none"/><path d="M237.47 367.85a6 6 0 0 1 6-6h45.62a6 6 0 0 1 6 6v46.2a6 6 0 0 1-6 6h-45.63a6 6 0 0 1-6-6zM317.47 367.85a6 6 0 0 1 6-6h45.62a6 6 0 0 1 6 6v46.2a6 6 0 0 1-6 6h-45.63a6 6 0 0 1-6-6zM397.47 367.85a6 6 0 0 1 6-6h45.62a6 6 0 0 1 6 6v46.2a6 6 0 0 1-6 6h-45.63a6 6 0 0 1-6-6z" stroke="#282c33" stroke-width="2" fill="#cfe4ff"/><path d="M568.74 340.4a6 6 0 0 1 6-6h168a6 6 0 0 1 6 6v92a6 6 0 0 1-6 6h-168a6 6 0 0 1-6-6z" stroke="#282c33" stroke-width="2" fill="#fff"/><g><use xlink:href="#W" transform="matrix(1,0,0,1,580.7362637362635,346.39722167619874) translate(39.19753086419755 47.38888888888888)"/></g><path d="M897.47 363.3a6 6 0 0 1 6-6h45.62a6 6 0 0 1 6 6v46.2a6 6 0 0 1-6 6h-45.63a6 6 0 0 1-6-6z" fill="#fe7070"/><path d="M918.68 357.3h15.2m7.6 0h7.6l.95.08.92.22.87.36.8.5.7.6.63.7.5.82.35.87.22.9.07.95v7.7m0 7.7v15.4m0 7.7v7.7l-.08.93-.22.92-.36.87-.5.8-.6.72-.72.6-.8.5-.87.36-.92.22-.94.07h-7.6m-7.62 0h-15.2m-7.6 0h-7.6l-.95-.08-.9-.22-.88-.36-.8-.5-.72-.6-.6-.72-.5-.8-.36-.87-.22-.92-.08-.94v-7.7m0-7.7v-15.4m0-7.7v-7.7l.08-.94.22-.9.36-.88.5-.8.6-.72.72-.6.8-.5.87-.36.9-.22.95-.08h7.6" stroke="#282c33" stroke-width="2" fill="none"/><path d="M479.28 386.4h72.08" stroke="#3a414a" fill="none"/><path d="M479.3 386.87h-.52v-.95h.5z" stroke="#3a414a" stroke-width=".05" fill="#3a414a"/><path d="M566.12 386.4l-14.27 4.63v-9.27z" stroke="#3a414a" fill="#3a414a"/><path d="M750.24 386.4H880.1" stroke="#3a414a" fill="none"/><path d="M750.25 386.87h-.5v-.95h.5z" stroke="#3a414a" stroke-width=".05" fill="#3a414a"/><path d="M894.85 386.4l-14.26 4.63v-9.27z" stroke="#3a414a" fill="#3a414a"/><path d="M438.74 266a6 6 0 0 1 6-6h386.12a6 6 0 0 1 6 6v78a6 6 0 0 1-6 6H444.74a6 6 0 0 1-6-6z" stroke="#000" stroke-opacity="0" stroke-width="2" fill="#fff" fill-opacity="0"/><g><use xlink:href="#X" transform="matrix(1,0,0,1,443.7362637362635,265) translate(15.101851851851904 46.66666666666666)"/><use xlink:href="#Y" transform="matrix(1,0,0,1,443.7362637362635,265) translate(143.71296296296296 46.66666666666666)"/><use xlink:href="#Z" transform="matrix(1,0,0,1,443.7362637362635,265) translate(240.84259259259255 46.66666666666666)"/></g><defs><path fill="#3a414a" d="M178-68c0 79-95 82-154 59v-54h12c1 35 22 52 60 52 50 0 69-58 33-82-39-24-105-21-105-85 0-67 86-66 142-53v49h-12l-6-29c-31-27-121-7-89 42 28 43 119 24 119 101" id="aa"/><path fill="#3a414a" d="M126-118c4-37-42-32-68-25v131l24 4v8H8C5-13 21-9 28-12v-141c-7-3-23 1-20-12h48l1 13c22-15 77-30 92 2 32-22 104-36 104 29v109c8 3 24-2 21 12h-75v-8l25-4v-106c3-39-45-31-72-24 7 37 1 88 3 130l25 4v8h-78v-8l24-4v-106" id="ab"/><path fill="#3a414a" d="M32-163c41-10 102-14 102 39v112c8 3 24-2 21 12h-45l-4-17C83 13 3 13 13-46c-2-50 45-50 92-51 4-36-5-70-42-56-6 2-12 4-16 6-4 7 0 23-15 20v-36zM42-47c0 41 41 33 63 22v-59c-34 1-63-1-63 37" id="ac"/><path fill="#3a414a" d="M65-12l28 4v8H7v-8l28-4v-226l-28-4v-8h58v238" id="ad"/><g id="a"><use transform="matrix(0.0864197530864197,0,0,0.0864197530864197,0,0)" xlink:href="#aa"/><use transform="matrix(0.0864197530864197,0,0,0.0864197530864197,17.283950617283942,0)" xlink:href="#ab"/><use transform="matrix(0.0864197530864197,0,0,0.0864197530864197,41.48148148148146,0)" xlink:href="#ac"/><use transform="matrix(0.0864197530864197,0,0,0.0864197530864197,55.22222222222219,0)" xlink:href="#ad"/><use transform="matrix(0.0864197530864197,0,0,0.0864197530864197,63.86419753086416,0)" xlink:href="#ad"/></g><path fill="#3a414a" d="M111-226l-36 4v207c33-1 73 2 101-4l11-49h11l-3 68H10v-9l31-5v-208l-31-4v-10h101v10" id="ae"/><path fill="#3a414a" d="M152 0h-7L59-203v189l32 5v9H10v-9l31-5v-208l-31-4v-10h72l76 180 84-180h68v10l-31 4v208l31 5v9h-96v-9l32-5v-189" id="af"/><g id="b"><use transform="matrix(0.0864197530864197,0,0,0.0864197530864197,0,0)" xlink:href="#ae"/><use transform="matrix(0.0864197530864197,0,0,0.0864197530864197,18.925925925925917,0)" xlink:href="#ae"/><use transform="matrix(0.0864197530864197,0,0,0.0864197530864197,37.85185185185183,0)" xlink:href="#af"/></g><path fill="#3a414a" d="M52-115c0 93 80 130 150 87l7-35h11l-1 55c-23 7-52 12-83 12C60 4 19-37 15-115c-5-113 97-141 201-114l1 51h-12l-5-30c-15-9-39-16-62-16-66 0-86 41-86 109" id="ag"/><path fill="#3a414a" d="M90-170c52 0 76 32 76 87 0 54-24 87-77 87-51 0-75-34-75-87 0-54 24-87 76-87zM89-10c39 0 46-35 46-73 0-39-7-73-46-73-39 1-44 34-44 73s6 72 44 73" id="ah"/><path fill="#3a414a" d="M57-145c16-10 35-24 60-25v45c-19 1-8-30-40-17l-20 6v124l29 4v8H7v-8l21-4v-141c-8-3-24 2-21-12h48" id="ai"/><path fill="#3a414a" d="M166-85c3 67-44 102-111 85l1 64 29 4v9H6v-9l21-4v-217c-7-3-22 1-19-12h46l1 9c11-8 26-14 45-14 47 2 64 36 66 85zM56-13c53 14 83-14 78-72 7-53-33-79-78-60v132" id="aj"/><path fill="#3a414a" d="M124-13C89 8 26 15 26-45v-108c-8-3-24 2-21-12h50v118c-3 37 42 32 69 25v-131l-25-4v-8h54v153c8 3 24-2 21 12h-48" id="ak"/><path fill="#3a414a" d="M41-130c7 48 86 23 86 84 0 56-69 57-112 41v-40c20 0 9 29 31 31 35 19 77-26 41-50-27-18-72-13-72-59 0-50 58-52 100-41v36c-19 1-8-25-28-25-21-7-50-1-46 23" id="al"/><g id="c"><use transform="matrix(0.08641975308641973,0,0,0.08641975308641973,0,0)" xlink:href="#ag"/><use transform="matrix(0.08641975308641973,0,0,0.08641975308641973,20.740740740740737,0)" xlink:href="#ah"/><use transform="matrix(0.08641975308641973,0,0,0.08641975308641973,36.29629629629629,0)" xlink:href="#ai"/><use transform="matrix(0.08641975308641973,0,0,0.08641975308641973,46.58024691358024,0)" xlink:href="#aj"/><use transform="matrix(0.08641975308641973,0,0,0.08641975308641973,62.13580246913579,0)" xlink:href="#ak"/><use transform="matrix(0.08641975308641973,0,0,0.08641975308641973,77.69135802469134,0)" xlink:href="#al"/></g><path fill="#3a414a" d="M55 0v-9l38-5v-207c-22 1-53 0-70 4l-5 37H7v-56h207v56h-12l-5-37-70-3v206l37 5v9H55" id="am"/><path fill="#3a414a" d="M47-200c-23 0-25-39 0-38 13 0 18 7 20 19-1 11-8 19-20 19zM65-12l28 4v8H8v-8l28-4v-141l-24-4v-8h53v153" id="an"/><path fill="#3a414a" d="M84-170c49 0 66 33 63 87H46c-8 60 38 80 95 63v10C128-2 108 4 88 4 34 4 14-29 14-84c-1-54 22-86 70-86zm33 73c12-57-57-82-69-24-1 7-2 15-2 24h71" id="ao"/><g id="d"><use transform="matrix(0.08641975308641973,0,0,0.08641975308641973,0,0)" xlink:href="#am"/><use transform="matrix(0.08641975308641973,0,0,0.08641975308641973,17.802469135802465,0)" xlink:href="#ai"/><use transform="matrix(0.08641975308641973,0,0,0.08641975308641973,28.086419753086414,0)" xlink:href="#an"/><use transform="matrix(0.08641975308641973,0,0,0.08641975308641973,36.728395061728385,0)" xlink:href="#ao"/></g><path fill="#3a414a" d="M141-152c28 39 5 97-54 97-9 0-20-2-27-3L49-35c29 22 130-14 124 52-4 45-38 57-88 61C21 83-8 26 45-2 33-6 22-15 21-31l28-31c-19-9-28-26-28-51-2-51 53-65 100-52l38-20 7 8zM85 64c35 0 61-11 61-42 0-35-57-17-89-21-9 8-16 19-17 34 0 25 19 29 45 29zM52-113c1 26 7 46 35 44 28-1 34-16 35-44 0-26-6-43-34-43s-36 17-36 43" id="ap"/><g id="e"><use transform="matrix(0.08641975308641973,0,0,0.08641975308641973,0,0)" xlink:href="#ae"/><use transform="matrix(0.08641975308641973,0,0,0.08641975308641973,18.92592592592592,0)" xlink:href="#ac"/><use transform="matrix(0.08641975308641973,0,0,0.08641975308641973,32.66666666666666,0)" xlink:href="#ai"/><use transform="matrix(0.08641975308641973,0,0,0.08641975308641973,42.34567901234567,0)" xlink:href="#ap"/><use transform="matrix(0.08641975308641973,0,0,0.08641975308641973,57.90123456790122,0)" xlink:href="#ao"/></g><g id="f"><use transform="matrix(0.08641975308641973,0,0,0.08641975308641973,0,0)" xlink:href="#ae"/><use transform="matrix(0.08641975308641973,0,0,0.08641975308641973,18.92592592592592,0)" xlink:href="#ae"/><use transform="matrix(0.08641975308641973,0,0,0.08641975308641973,37.85185185185184,0)" xlink:href="#af"/></g><path fill="#3a414a" d="M13-71v-27h94v27H13" id="aq"/><g id="g"><use transform="matrix(0.08641975308641973,0,0,0.08641975308641973,0,0)" xlink:href="#am"/><use transform="matrix(0.08641975308641973,0,0,0.08641975308641973,17.802469135802465,0)" xlink:href="#ai"/><use transform="matrix(0.08641975308641973,0,0,0.08641975308641973,28.086419753086414,0)" xlink:href="#an"/><use transform="matrix(0.08641975308641973,0,0,0.08641975308641973,36.728395061728385,0)" xlink:href="#aq"/><use transform="matrix(0.08641975308641973,0,0,0.08641975308641973,47.012345679012334,0)" xlink:href="#ap"/><use transform="matrix(0.08641975308641973,0,0,0.08641975308641973,62.567901234567884,0)" xlink:href="#ai"/><use transform="matrix(0.08641975308641973,0,0,0.08641975308641973,72.85185185185183,0)" xlink:href="#ac"/><use transform="matrix(0.08641975308641973,0,0,0.08641975308641973,86.59259259259257,0)" xlink:href="#ab"/></g><path fill="#3a414a" d="M54-38c-1 25 24 26 44 20v12C71 10 25 9 25-35v-115H4c-2-14 14-10 21-15l18-38h11v38h38v15H54v112" id="ar"/><path fill="#3a414a" d="M156-12c7 3 23-1 20 12h-75v-8l22-4-38-58-45 58 23 4v8H3v-8l19-3 55-71-48-71c-7-3-23 1-20-12h75v8l-22 4 32 48 37-48-23-4v-8h59v8l-19 3-46 60" id="as"/><g id="h"><use transform="matrix(0.08641975308641973,0,0,0.08641975308641973,0,0)" xlink:href="#af"/><use transform="matrix(0.08641975308641973,0,0,0.08641975308641973,27.654320987654316,0)" xlink:href="#ac"/><use transform="matrix(0.08641975308641973,0,0,0.08641975308641973,41.39506172839505,0)" xlink:href="#ar"/><use transform="matrix(0.08641975308641973,0,0,0.08641975308641973,50.037037037037024,0)" xlink:href="#ai"/><use transform="matrix(0.08641975308641973,0,0,0.08641975308641973,60.32098765432097,0)" xlink:href="#an"/><use transform="matrix(0.08641975308641973,0,0,0.08641975308641973,68.96296296296295,0)" xlink:href="#as"/></g><path fill="#3a414a" d="M126-119c3-38-42-31-69-25v132l23 4v8H7v-8l21-4v-226l-24-4v-8h53l-1 98c31-22 99-31 99 31v109c7 3 23-1 20 12h-71v-8l22-4v-107" id="at"/><g id="i"><use transform="matrix(0.06172839506172839,0,0,0.06172839506172839,0,0)" xlink:href="#am"/><use transform="matrix(0.06172839506172839,0,0,0.06172839506172839,13.518518518518517,0)" xlink:href="#at"/><use transform="matrix(0.06172839506172839,0,0,0.06172839506172839,24.629629629629626,0)" xlink:href="#ao"/></g><g id="j"><use transform="matrix(0.06172839506172839,0,0,0.06172839506172839,0,0)" xlink:href="#ae"/><use transform="matrix(0.06172839506172839,0,0,0.06172839506172839,13.518518518518517,0)" xlink:href="#ae"/><use transform="matrix(0.06172839506172839,0,0,0.06172839506172839,27.037037037037035,0)" xlink:href="#af"/><use transform="matrix(0.06172839506172839,0,0,0.06172839506172839,46.79012345679012,0)" xlink:href="#al"/></g><g id="k"><use transform="matrix(0.06172839506172839,0,0,0.06172839506172839,0,0)" xlink:href="#ae"/><use transform="matrix(0.06172839506172839,0,0,0.06172839506172839,13.518518518518517,0)" xlink:href="#ae"/><use transform="matrix(0.06172839506172839,0,0,0.06172839506172839,27.037037037037035,0)" xlink:href="#af"/><use transform="matrix(0.06172839506172839,0,0,0.06172839506172839,46.79012345679012,0)" xlink:href="#al"/></g><g id="l"><use transform="matrix(0.06172839506172839,0,0,0.06172839506172839,0,0)" xlink:href="#an"/><use transform="matrix(0.06172839506172839,0,0,0.06172839506172839,6.172839506172839,0)" xlink:href="#al"/></g><g id="m"><use transform="matrix(0.06172839506172839,0,0,0.06172839506172839,0,0)" xlink:href="#an"/><use transform="matrix(0.06172839506172839,0,0,0.06172839506172839,6.172839506172839,0)" xlink:href="#al"/></g><g id="n"><use transform="matrix(0.06172839506172839,0,0,0.06172839506172839,0,0)" xlink:href="#ar"/><use transform="matrix(0.06172839506172839,0,0,0.06172839506172839,6.172839506172839,0)" xlink:href="#at"/><use transform="matrix(0.06172839506172839,0,0,0.06172839506172839,17.28395061728395,0)" xlink:href="#ao"/></g><use transform="matrix(0.06172839506172839,0,0,0.06172839506172839,0,0)" xlink:href="#ac" id="o"/><g id="p"><use transform="matrix(0.06172839506172839,0,0,0.06172839506172839,0,0)" xlink:href="#ar"/><use transform="matrix(0.06172839506172839,0,0,0.06172839506172839,6.172839506172839,0)" xlink:href="#at"/><use transform="matrix(0.06172839506172839,0,0,0.06172839506172839,17.28395061728395,0)" xlink:href="#ao"/></g><path fill="#3a414a" d="M53-14c58 12 82-15 82-73 0-52-35-77-82-58v131zM89 4C64 4 42-2 24-9v-229l-24-4v-8h53l-1 94c48-33 114-4 114 69 0 57-23 91-77 91" id="au"/><g id="q"><use transform="matrix(0.06172839506172839,0,0,0.06172839506172839,0,0)" xlink:href="#au"/><use transform="matrix(0.06172839506172839,0,0,0.06172839506172839,11.11111111111111,0)" xlink:href="#ao"/><use transform="matrix(0.06172839506172839,0,0,0.06172839506172839,20.925925925925924,0)" xlink:href="#al"/><use transform="matrix(0.06172839506172839,0,0,0.06172839506172839,29.5679012345679,0)" xlink:href="#ar"/></g><g id="r"><use transform="matrix(0.06172839506172839,0,0,0.06172839506172839,0,0)" xlink:href="#au"/><use transform="matrix(0.06172839506172839,0,0,0.06172839506172839,11.11111111111111,0)" xlink:href="#an"/><use transform="matrix(0.06172839506172839,0,0,0.06172839506172839,17.28395061728395,0)" xlink:href="#ap"/><use transform="matrix(0.06172839506172839,0,0,0.06172839506172839,28.39506172839506,0)" xlink:href="#ap"/><use transform="matrix(0.06172839506172839,0,0,0.06172839506172839,39.50617283950617,0)" xlink:href="#ao"/><use transform="matrix(0.06172839506172839,0,0,0.06172839506172839,49.32098765432099,0)" xlink:href="#al"/><use transform="matrix(0.06172839506172839,0,0,0.06172839506172839,57.96296296296296,0)" xlink:href="#ar"/></g><g id="s"><use transform="matrix(0.06172839506172839,0,0,0.06172839506172839,0,0)" xlink:href="#ap"/><use transform="matrix(0.06172839506172839,0,0,0.06172839506172839,11.11111111111111,0)" xlink:href="#ai"/><use transform="matrix(0.06172839506172839,0,0,0.06172839506172839,18.45679012345679,0)" xlink:href="#ao"/><use transform="matrix(0.06172839506172839,0,0,0.06172839506172839,28.271604938271608,0)" xlink:href="#ac"/><use transform="matrix(0.06172839506172839,0,0,0.06172839506172839,38.086419753086425,0)" xlink:href="#ar"/><use transform="matrix(0.06172839506172839,0,0,0.06172839506172839,44.25925925925927,0)" xlink:href="#ao"/><use transform="matrix(0.06172839506172839,0,0,0.06172839506172839,54.07407407407408,0)" xlink:href="#al"/><use transform="matrix(0.06172839506172839,0,0,0.06172839506172839,62.71604938271606,0)" xlink:href="#ar"/></g><path fill="#3a414a" d="M45-84c0 64 52 80 104 63 1 25-30 25-55 25-56 0-80-32-80-88 0-76 62-98 131-80v46h-10c-5-15-4-31-23-35-47-10-67 21-67 69" id="av"/><path fill="#3a414a" d="M125-118c4-37-41-34-68-26v132l23 4v8H8C5-13 21-9 28-12v-141c-7-3-23 1-20-12h47l2 13c31-23 98-29 98 31v109c7 3 23-1 20 12h-72v-8l22-4v-106" id="aw"/><path fill="#3a414a" d="M13-82c-2-68 46-101 114-84 8-3 15-8 28-7V64l18 4v9h-70v-9l23-4c1-25-2-53 2-75-11 8-27 15-47 15-49-1-66-35-68-86zm113-70c-53-13-86 12-81 70-6 54 34 80 81 61v-131" id="ax"/><g id="t"><use transform="matrix(0.06172839506172839,0,0,0.06172839506172839,0,0)" xlink:href="#ar"/><use transform="matrix(0.06172839506172839,0,0,0.06172839506172839,6.172839506172839,0)" xlink:href="#ao"/><use transform="matrix(0.06172839506172839,0,0,0.06172839506172839,15.987654320987653,0)" xlink:href="#av"/><use transform="matrix(0.06172839506172839,0,0,0.06172839506172839,25.80246913580247,0)" xlink:href="#at"/><use transform="matrix(0.06172839506172839,0,0,0.06172839506172839,36.91358024691358,0)" xlink:href="#aw"/><use transform="matrix(0.06172839506172839,0,0,0.06172839506172839,48.0246913580247,0)" xlink:href="#an"/><use transform="matrix(0.06172839506172839,0,0,0.06172839506172839,54.19753086419754,0)" xlink:href="#ax"/><use transform="matrix(0.06172839506172839,0,0,0.06172839506172839,65.30864197530865,0)" xlink:href="#ak"/><use transform="matrix(0.06172839506172839,0,0,0.06172839506172839,76.41975308641976,0)" xlink:href="#ao"/></g><g id="u"><use transform="matrix(0.09259259259259256,0,0,0.09259259259259256,0,0)" xlink:href="#ae"/><use transform="matrix(0.09259259259259256,0,0,0.09259259259259256,20.27777777777777,0)" xlink:href="#ac"/><use transform="matrix(0.09259259259259256,0,0,0.09259259259259256,34.999999999999986,0)" xlink:href="#al"/><use transform="matrix(0.09259259259259256,0,0,0.09259259259259256,47.96296296296295,0)" xlink:href="#ar"/></g><path fill="#3a414a" d="M24-231c66-21 156 2 128 81C132-92 78-66 39-27h121V0H16v-26l59-54c26-25 47-47 47-97 0-48-47-57-81-37l-6 29H24v-46" id="ay"/><use transform="matrix(0.09259259259259256,0,0,0.09259259259259256,0,0)" xlink:href="#ay" id="v"/><path fill="#3a414a" d="M60-80l68-73c-7-3-20 0-17-12h58c3 13-13 9-20 12l-47 48 60 93c7 3 21-1 18 12h-68c-3-12 9-9 15-12L82-83 60-60v48c7 3 21-1 18 12H10v-8l21-4v-226l-24-4v-8h53v170" id="az"/><g id="w"><use transform="matrix(0.09259259259259256,0,0,0.09259259259259256,0,0)" xlink:href="#ar"/><use transform="matrix(0.09259259259259256,0,0,0.09259259259259256,9.259259259259256,0)" xlink:href="#ah"/><use transform="matrix(0.09259259259259256,0,0,0.09259259259259256,25.925925925925917,0)" xlink:href="#az"/><use transform="matrix(0.09259259259259256,0,0,0.09259259259259256,42.59259259259258,0)" xlink:href="#ao"/><use transform="matrix(0.09259259259259256,0,0,0.09259259259259256,57.314814814814795,0)" xlink:href="#aw"/><use transform="matrix(0.09259259259259256,0,0,0.09259259259259256,73.98148148148145,0)" xlink:href="#al"/></g><path fill="#3a414a" d="M103-236c-39-15-35 32-34 71h44v15H69v136l35 6v8H15v-8l25-6v-136H11v-9l29-7c-6-59 23-100 80-84v36c-15 2-12-14-17-22" id="aA"/><g id="x"><use transform="matrix(0.09259259259259256,0,0,0.09259259259259256,0,0)" xlink:href="#ah"/><use transform="matrix(0.09259259259259256,0,0,0.09259259259259256,16.66666666666666,0)" xlink:href="#aA"/></g><g id="y"><use transform="matrix(0.09259259259259256,0,0,0.09259259259259256,0,0)" xlink:href="#an"/><use transform="matrix(0.09259259259259256,0,0,0.09259259259259256,9.259259259259256,0)" xlink:href="#aw"/><use transform="matrix(0.09259259259259256,0,0,0.09259259259259256,25.925925925925917,0)" xlink:href="#aj"/><use transform="matrix(0.09259259259259256,0,0,0.09259259259259256,42.59259259259258,0)" xlink:href="#ak"/><use transform="matrix(0.09259259259259256,0,0,0.09259259259259256,59.25925925925924,0)" xlink:href="#ar"/></g><g id="z"><use transform="matrix(0.09259259259259256,0,0,0.09259259259259256,0,0)" xlink:href="#af"/><use transform="matrix(0.09259259259259256,0,0,0.09259259259259256,29.62962962962962,0)" xlink:href="#ag"/><use transform="matrix(0.09259259259259256,0,0,0.09259259259259256,51.85185185185183,0)" xlink:href="#am"/><use transform="matrix(0.09259259259259256,0,0,0.09259259259259256,72.1296296296296,0)" xlink:href="#aa"/></g><g id="A"><use transform="matrix(0.09259259259259256,0,0,0.09259259259259256,0,0)" xlink:href="#aa"/><use transform="matrix(0.09259259259259256,0,0,0.09259259259259256,18.518518518518512,0)" xlink:href="#an"/><use transform="matrix(0.09259259259259256,0,0,0.09259259259259256,27.777777777777768,0)" xlink:href="#ab"/><use transform="matrix(0.09259259259259256,0,0,0.09259259259259256,53.70370370370368,0)" xlink:href="#ak"/><use transform="matrix(0.09259259259259256,0,0,0.09259259259259256,70.37037037037034,0)" xlink:href="#ad"/><use transform="matrix(0.09259259259259256,0,0,0.09259259259259256,79.62962962962959,0)" xlink:href="#ac"/><use transform="matrix(0.09259259259259256,0,0,0.09259259259259256,94.3518518518518,0)" xlink:href="#ar"/><use transform="matrix(0.09259259259259256,0,0,0.09259259259259256,103.61111111111106,0)" xlink:href="#an"/><use transform="matrix(0.09259259259259256,0,0,0.09259259259259256,112.87037037037031,0)" xlink:href="#ah"/><use transform="matrix(0.09259259259259256,0,0,0.09259259259259256,129.53703703703698,0)" xlink:href="#aw"/></g><path fill="#3a414a" d="M222-170c0 37-18 56-47 65l63 87 25 5V0h-76l-66-100H92v82l30 5V0H8v-13l28-5v-200l-30-5v-13c89 5 214-24 216 66zM92-119c45 2 75-3 75-50s-30-49-75-47v97" id="aB"/><path fill="#3a414a" d="M6-13l30-5v-200l-30-5v-13h201v60h-16l-6-38-93-2v86h61l6-26h16v73h-16l-6-27H92v91l104-3 10-44h16l-4 66H6v-13" id="aC"/><path fill="#3a414a" d="M185-72C185 13 82 14 19-9v-63h16c2 37 21 58 61 58 46 0 69-51 31-71-42-23-106-23-106-90 0-69 87-70 148-56v56h-16l-7-32c-26-25-110-13-82 35 39 34 121 26 121 100" id="aD"/><path fill="#3a414a" d="M54 0v-13l38-5v-199l-66 3-4 44H6v-66h229v66h-17l-4-44c-17-2-44-3-67-3v199l38 5V0H54" id="aE"/><g id="B"><use transform="matrix(0.09259259259259256,0,0,0.09259259259259256,0,0)" xlink:href="#aB"/><use transform="matrix(0.09259259259259256,0,0,0.09259259259259256,23.981481481481474,0)" xlink:href="#aC"/><use transform="matrix(0.09259259259259256,0,0,0.09259259259259256,46.20370370370369,0)" xlink:href="#aD"/><use transform="matrix(0.09259259259259256,0,0,0.09259259259259256,64.7222222222222,0)" xlink:href="#aE"/></g><path fill="#3a414a" d="M128-223l-36 5v199l103-3 14-49h16l-7 71H6v-13l30-5v-200l-30-5v-13h122v13" id="aF"/><path fill="#3a414a" d="M90-170c54-1 76 32 76 87 1 56-23 87-77 87-53 0-75-32-75-87s23-86 76-87zM89-14c28-2 26-38 26-69s3-69-26-69c-27 0-24 39-24 69s-3 66 24 69" id="aG"/><path fill="#3a414a" d="M77-79l64-71-17-4v-11h63v11c-32 3-40 30-59 46l57 92 15 4V0h-80c-2-11 3-15 10-16L97-74 77-60v44l16 4V0H10v-12l16-4v-218l-17-4v-12h68v171" id="aH"/><path fill="#3a414a" d="M31-163c51-5 127-20 127 40v107l17 4V0h-61l-4-13C82 13 12 12 12-46c0-51 46-52 95-53 9-45-22-69-57-44l-7 20H31v-40zM62-47c0 30 26 34 45 23v-59c-28 0-45 6-45 36" id="aI"/><path fill="#3a414a" d="M127-114c3-31-26-38-50-25v123l15 4V0H10v-12l16-4v-218l-17-4v-12h68l-1 99c31-23 102-32 102 30v105l17 4V0h-82v-12l14-4v-98" id="aJ"/><path fill="#3a414a" d="M12-83c0-55 22-85 75-86 52-1 66 33 63 88H64c-1 37 6 64 44 63 14 0 28-4 39-6 3 28-28 25-55 27-57 4-80-31-80-86zm90-17c2-26 0-63-27-48-10 9-11 28-11 48h38" id="aK"/><path fill="#3a414a" d="M15-82c-4-69 47-101 113-83l-1-69-17-4v-12h68v234l18 4V0h-63l-4-9C77 23 5-9 15-82zm112-66c-43-16-64 17-61 65 2 33 3 67 32 67 12 0 22-3 29-8v-124" id="aL"/><g id="C"><use transform="matrix(0.09259259259259256,0,0,0.09259259259259256,0,0)" xlink:href="#aF"/><use transform="matrix(0.09259259259259256,0,0,0.09259259259259256,22.222222222222214,0)" xlink:href="#aG"/><use transform="matrix(0.09259259259259256,0,0,0.09259259259259256,38.88888888888887,0)" xlink:href="#aG"/><use transform="matrix(0.09259259259259256,0,0,0.09259259259259256,55.55555555555553,0)" xlink:href="#aH"/><use transform="matrix(0.09259259259259256,0,0,0.09259259259259256,74.07407407407405,0)" xlink:href="#aI"/><use transform="matrix(0.09259259259259256,0,0,0.09259259259259256,90.7407407407407,0)" xlink:href="#aJ"/><use transform="matrix(0.09259259259259256,0,0,0.09259259259259256,109.2592592592592,0)" xlink:href="#aK"/><use transform="matrix(0.09259259259259256,0,0,0.09259259259259256,123.98148148148141,0)" xlink:href="#aI"/><use transform="matrix(0.09259259259259256,0,0,0.09259259259259256,140.6481481481481,0)" xlink:href="#aL"/></g><path fill="#3a414a" d="M186-86c2 69-46 103-114 85l1 62 25 4v12H5V65l18-4v-210l-18-5v-11h67v8c12-8 26-13 46-13 49 2 67 30 68 84zm-83 71c28 0 31-33 31-69 0-34-2-66-30-66-12 0-23 3-31 7v124c9 2 20 4 30 4" id="aM"/><path fill="#3a414a" d="M109-18c15 0 31-2 42-6v14c-11 9-31 13-51 13-59 0-86-28-88-86-3-75 66-101 135-80v48h-13c-3-20-7-40-34-37-51 7-55 138 9 134" id="aN"/><path fill="#3a414a" d="M73-51c-3 31 27 38 51 25v-123l-16-5v-11h66v149l17 4V0h-65l-2-14C94 9 22 18 22-44v-105l-17-5v-11h68v114" id="aO"/><path fill="#3a414a" d="M76-16l18 4V0H7v-12l18-4v-218l-17-4v-12h68v234" id="aP"/><path fill="#3a414a" d="M78-41c-2 24 21 26 40 20C122 3 98 2 77 4 5 10 32-84 27-147H6v-11l25-7 21-38h26v38h35v18H78v106" id="aQ"/><path fill="#3a414a" d="M77-16l18 4V0H8v-12l18-4v-133l-17-5v-11h68v149zM51-196c-16 0-27-10-27-27s10-27 27-27 27 11 27 27c0 17-10 27-27 27" id="aR"/><path fill="#3a414a" d="M168-150L102 4H81L12-149c-7-2-15-4-12-16h85v11l-20 5 42 94 38-94-19-5v-11h54v11" id="aS"/><g id="D"><use transform="matrix(0.09259259259259256,0,0,0.09259259259259256,0,0)" xlink:href="#aD"/><use transform="matrix(0.09259259259259256,0,0,0.09259259259259256,18.518518518518512,0)" xlink:href="#aM"/><use transform="matrix(0.09259259259259256,0,0,0.09259259259259256,37.037037037037024,0)" xlink:href="#aK"/><use transform="matrix(0.09259259259259256,0,0,0.09259259259259256,51.75925925925924,0)" xlink:href="#aN"/><use transform="matrix(0.09259259259259256,0,0,0.09259259259259256,66.48148148148145,0)" xlink:href="#aO"/><use transform="matrix(0.09259259259259256,0,0,0.09259259259259256,84.99999999999997,0)" xlink:href="#aP"/><use transform="matrix(0.09259259259259256,0,0,0.09259259259259256,94.25925925925922,0)" xlink:href="#aI"/><use transform="matrix(0.09259259259259256,0,0,0.09259259259259256,110.92592592592588,0)" xlink:href="#aQ"/><use transform="matrix(0.09259259259259256,0,0,0.09259259259259256,121.9444444444444,0)" xlink:href="#aR"/><use transform="matrix(0.09259259259259256,0,0,0.09259259259259256,131.20370370370367,0)" xlink:href="#aS"/><use transform="matrix(0.09259259259259256,0,0,0.09259259259259256,147.87037037037032,0)" xlink:href="#aK"/></g><path fill="#3a414a" d="M92-20c74 11 92-29 92-98 0-66-23-103-92-98v196zm150-99C242 9 136 6 6 0v-13l31-5v-200l-31-5v-13h112c81 0 124 34 124 117" id="aT"/><path fill="#3a414a" d="M127-114c3-31-26-38-50-25v123l15 4V0H10v-12l16-4v-133l-16-5v-11h64l2 14c31-23 102-32 102 30v105l17 4V0h-82v-12l14-4v-98" id="aU"/><path fill="#3a414a" d="M9 41c2-18 18-26 32-33C29 1 16-9 16-28l29-33c-21-9-31-25-31-51-2-56 61-65 111-53l39-20c13 12-9 24-14 36 35 54-17 114-90 92-17 34 27 28 56 28 36-1 61 12 60 46-2 46-39 62-91 62-38 0-71-6-76-38zm35-3c6 35 97 29 94-9-2-28-50-14-78-17-8 7-15 14-16 26zm20-150c0 22 4 40 23 40 20 0 24-17 24-40 0-24-4-40-24-40-19 0-23 17-23 40" id="aV"/><g id="E"><use transform="matrix(0.09259259259259256,0,0,0.09259259259259256,0,0)" xlink:href="#aT"/><use transform="matrix(0.09259259259259256,0,0,0.09259259259259256,23.981481481481474,0)" xlink:href="#aK"/><use transform="matrix(0.09259259259259256,0,0,0.09259259259259256,38.703703703703695,0)" xlink:href="#aN"/><use transform="matrix(0.09259259259259256,0,0,0.09259259259259256,53.42592592592591,0)" xlink:href="#aG"/><use transform="matrix(0.09259259259259256,0,0,0.09259259259259256,70.09259259259257,0)" xlink:href="#aL"/><use transform="matrix(0.09259259259259256,0,0,0.09259259259259256,88.61111111111109,0)" xlink:href="#aR"/><use transform="matrix(0.09259259259259256,0,0,0.09259259259259256,97.87037037037034,0)" xlink:href="#aU"/><use transform="matrix(0.09259259259259256,0,0,0.09259259259259256,116.38888888888884,0)" xlink:href="#aV"/></g><path fill="#3a414a" d="M140-221c-55 0-64 47-64 103S8-14 140-14c56 0 64-48 64-104s-9-103-64-103zm0 225C61 4 18-36 18-118c0-81 41-120 122-120 80 0 122 39 122 120C262-36 219 4 140 4" id="aW"/><path fill="#3a414a" d="M132-132c-21 0-37 9-50 16v100l26 4V0H10v-12l21-4v-133l-21-5v-11h69l2 34c17-18 35-41 71-40v61c-17 3-14-14-20-22" id="aX"/><path fill="#3a414a" d="M102-142c-14-17-68-15-54 18 24 26 83 17 83 72 0 62-72 62-120 47v-45h12c4 23 16 37 43 37 35 0 39-37 9-46-31-9-65-19-64-61 0-52 59-55 108-45v43h-11" id="aY"/><g id="F"><use transform="matrix(0.09259259259259256,0,0,0.09259259259259256,0,0)" xlink:href="#aW"/><use transform="matrix(0.09259259259259256,0,0,0.09259259259259256,25.925925925925917,0)" xlink:href="#aO"/><use transform="matrix(0.09259259259259256,0,0,0.09259259259259256,44.44444444444443,0)" xlink:href="#aX"/><use transform="matrix(0.09259259259259256,0,0,0.09259259259259256,59.16666666666664,0)" xlink:href="#aY"/></g><path fill="#3a414a" d="M77-14l30 5v9H13v-9l30-5v-208l-30-4v-10h94v10l-30 4v208" id="aZ"/><g id="G"><use transform="matrix(0.08024691358024691,0,0,0.08024691358024691,0,0)" xlink:href="#aZ"/><use transform="matrix(0.08024691358024691,0,0,0.08024691358024691,9.549382716049383,0)" xlink:href="#aw"/><use transform="matrix(0.08024691358024691,0,0,0.08024691358024691,23.993827160493826,0)" xlink:href="#aj"/><use transform="matrix(0.08024691358024691,0,0,0.08024691358024691,38.438271604938265,0)" xlink:href="#ak"/><use transform="matrix(0.08024691358024691,0,0,0.08024691358024691,52.8827160493827,0)" xlink:href="#ar"/></g><g id="H"><use transform="matrix(0.08024691358024691,0,0,0.08024691358024691,0,0)" xlink:href="#am"/><use transform="matrix(0.08024691358024691,0,0,0.08024691358024691,15.5679012345679,0)" xlink:href="#ah"/><use transform="matrix(0.08024691358024691,0,0,0.08024691358024691,30.012345679012338,0)" xlink:href="#az"/><use transform="matrix(0.08024691358024691,0,0,0.08024691358024691,44.456790123456784,0)" xlink:href="#ao"/><use transform="matrix(0.08024691358024691,0,0,0.08024691358024691,57.216049382716044,0)" xlink:href="#aw"/><use transform="matrix(0.08024691358024691,0,0,0.08024691358024691,71.66049382716048,0)" xlink:href="#al"/></g><path fill="#3a414a" d="M75-17c87 13 134-18 134-103 0-78-51-106-134-100v203zm171-102C246 5 139 7 10 0v-9l31-5v-208l-31-4v-10h107c82 0 129 35 129 117" id="ba"/><g id="I"><use transform="matrix(0.08024691358024691,0,0,0.08024691358024691,0,0)" xlink:href="#ba"/><use transform="matrix(0.08024691358024691,0,0,0.08024691358024691,20.78395061728395,0)" xlink:href="#ai"/><use transform="matrix(0.08024691358024691,0,0,0.08024691358024691,30.333333333333332,0)" xlink:href="#ac"/><use transform="matrix(0.08024691358024691,0,0,0.08024691358024691,43.09259259259259,0)" xlink:href="#aA"/><use transform="matrix(0.08024691358024691,0,0,0.08024691358024691,52.641975308641975,0)" xlink:href="#ar"/></g><g id="J"><use transform="matrix(0.08024691358024691,0,0,0.08024691358024691,0,0)" xlink:href="#am"/><use transform="matrix(0.08024691358024691,0,0,0.08024691358024691,15.5679012345679,0)" xlink:href="#ah"/><use transform="matrix(0.08024691358024691,0,0,0.08024691358024691,30.012345679012338,0)" xlink:href="#az"/><use transform="matrix(0.08024691358024691,0,0,0.08024691358024691,44.456790123456784,0)" xlink:href="#ao"/><use transform="matrix(0.08024691358024691,0,0,0.08024691358024691,57.216049382716044,0)" xlink:href="#aw"/><use transform="matrix(0.08024691358024691,0,0,0.08024691358024691,71.66049382716048,0)" xlink:href="#al"/></g><path fill="#3a414a" d="M52-115c0 90 69 126 140 93v-67l-30-5v-9h87v9l-23 5v77c-27 8-56 16-90 16C59 2 15-37 15-115c-1-82 41-123 122-123 31 0 59 4 83 10v51h-12l-5-29c-15-12-38-18-65-18-66-1-86 42-86 109" id="bb"/><path fill="#3a414a" d="M13-81c0-71 46-101 114-85l-1-72-28-4v-8h57v238c8 3 24-2 21 12h-47l-2-12C80 23 13-1 13-81zm77-74c-37 1-44 33-45 74 0 38 9 66 45 66 14 0 27-3 36-7v-130c-10-1-24-3-36-3" id="bc"/><g id="K"><use transform="matrix(0.08024691358024691,0,0,0.08024691358024691,0,0)" xlink:href="#bb"/><use transform="matrix(0.08024691358024691,0,0,0.08024691358024691,20.78395061728395,0)" xlink:href="#ao"/><use transform="matrix(0.08024691358024691,0,0,0.08024691358024691,33.54320987654321,0)" xlink:href="#aw"/><use transform="matrix(0.08024691358024691,0,0,0.08024691358024691,47.98765432098765,0)" xlink:href="#ao"/><use transform="matrix(0.08024691358024691,0,0,0.08024691358024691,60.74691358024691,0)" xlink:href="#ai"/><use transform="matrix(0.08024691358024691,0,0,0.08024691358024691,70.29629629629629,0)" xlink:href="#ac"/><use transform="matrix(0.08024691358024691,0,0,0.08024691358024691,83.05555555555556,0)" xlink:href="#ar"/><use transform="matrix(0.08024691358024691,0,0,0.08024691358024691,91.08024691358024,0)" xlink:href="#ao"/><use transform="matrix(0.08024691358024691,0,0,0.08024691358024691,103.8395061728395,0)" xlink:href="#bc"/></g><g id="L"><use transform="matrix(0.08024691358024691,0,0,0.08024691358024691,0,0)" xlink:href="#aZ"/><use transform="matrix(0.08024691358024691,0,0,0.08024691358024691,9.549382716049383,0)" xlink:href="#aw"/><use transform="matrix(0.08024691358024691,0,0,0.08024691358024691,23.993827160493826,0)" xlink:href="#ar"/><use transform="matrix(0.08024691358024691,0,0,0.08024691358024691,32.01851851851852,0)" xlink:href="#ao"/><use transform="matrix(0.08024691358024691,0,0,0.08024691358024691,44.77777777777778,0)" xlink:href="#ai"/><use transform="matrix(0.08024691358024691,0,0,0.08024691358024691,54.327160493827165,0)" xlink:href="#ab"/><use transform="matrix(0.08024691358024691,0,0,0.08024691358024691,76.7962962962963,0)" xlink:href="#ao"/><use transform="matrix(0.08024691358024691,0,0,0.08024691358024691,89.55555555555556,0)" xlink:href="#bc"/><use transform="matrix(0.08024691358024691,0,0,0.08024691358024691,104,0)" xlink:href="#an"/><use transform="matrix(0.08024691358024691,0,0,0.08024691358024691,112.0246913580247,0)" xlink:href="#ac"/><use transform="matrix(0.08024691358024691,0,0,0.08024691358024691,124.78395061728395,0)" xlink:href="#ar"/><use transform="matrix(0.08024691358024691,0,0,0.08024691358024691,132.80864197530863,0)" xlink:href="#ao"/></g><path fill="#3a414a" d="M199-173c-1 36-21 56-49 65l64 94 26 5v9h-57l-66-103H75v89l35 5v9H13v-9l28-5v-208l-31-4v-10c80 4 190-20 189 63zM75-119c50 2 89-1 89-51 0-49-39-52-89-50v101" id="bd"/><g id="M"><use transform="matrix(0.08024691358024691,0,0,0.08024691358024691,0,0)" xlink:href="#bd"/><use transform="matrix(0.08024691358024691,0,0,0.08024691358024691,19.25925925925926,0)" xlink:href="#ao"/><use transform="matrix(0.08024691358024691,0,0,0.08024691358024691,32.01851851851852,0)" xlink:href="#al"/><use transform="matrix(0.08024691358024691,0,0,0.08024691358024691,43.253086419753096,0)" xlink:href="#ak"/><use transform="matrix(0.08024691358024691,0,0,0.08024691358024691,57.697530864197525,0)" xlink:href="#ad"/><use transform="matrix(0.08024691358024691,0,0,0.08024691358024691,65.72222222222223,0)" xlink:href="#ar"/><use transform="matrix(0.08024691358024691,0,0,0.08024691358024691,73.74691358024693,0)" xlink:href="#al"/></g><g id="N"><use transform="matrix(0.0864197530864197,0,0,0.0864197530864197,0,0)" xlink:href="#af"/><use transform="matrix(0.0864197530864197,0,0,0.0864197530864197,27.654320987654305,0)" xlink:href="#ag"/><use transform="matrix(0.0864197530864197,0,0,0.0864197530864197,48.395061728395035,0)" xlink:href="#am"/><use transform="matrix(0.0864197530864197,0,0,0.0864197530864197,67.32098765432096,0)" xlink:href="#aa"/></g><g id="O"><use transform="matrix(0.06172839506172839,0,0,0.06172839506172839,0,0)" xlink:href="#ae"/><use transform="matrix(0.06172839506172839,0,0,0.06172839506172839,13.518518518518517,0)" xlink:href="#ae"/><use transform="matrix(0.06172839506172839,0,0,0.06172839506172839,27.037037037037035,0)" xlink:href="#af"/><use transform="matrix(0.06172839506172839,0,0,0.06172839506172839,46.79012345679012,0)" xlink:href="#al"/></g><g id="P"><use transform="matrix(0.06172839506172839,0,0,0.06172839506172839,0,0)" xlink:href="#an"/><use transform="matrix(0.06172839506172839,0,0,0.06172839506172839,6.172839506172839,0)" xlink:href="#al"/></g><g id="Q"><use transform="matrix(0.06172839506172839,0,0,0.06172839506172839,0,0)" xlink:href="#ar"/><use transform="matrix(0.06172839506172839,0,0,0.06172839506172839,6.172839506172839,0)" xlink:href="#at"/><use transform="matrix(0.06172839506172839,0,0,0.06172839506172839,17.28395061728395,0)" xlink:href="#ao"/></g><g id="R"><use transform="matrix(0.06172839506172839,0,0,0.06172839506172839,0,0)" xlink:href="#an"/><use transform="matrix(0.06172839506172839,0,0,0.06172839506172839,6.172839506172839,0)" xlink:href="#al"/></g><use transform="matrix(0.06172839506172839,0,0,0.06172839506172839,0,0)" xlink:href="#ac" id="S"/><g id="T"><use transform="matrix(0.06172839506172839,0,0,0.06172839506172839,0,0)" xlink:href="#ar"/><use transform="matrix(0.06172839506172839,0,0,0.06172839506172839,6.172839506172839,0)" xlink:href="#ao"/><use transform="matrix(0.06172839506172839,0,0,0.06172839506172839,15.987654320987653,0)" xlink:href="#av"/><use transform="matrix(0.06172839506172839,0,0,0.06172839506172839,25.80246913580247,0)" xlink:href="#at"/><use transform="matrix(0.06172839506172839,0,0,0.06172839506172839,36.91358024691358,0)" xlink:href="#aw"/><use transform="matrix(0.06172839506172839,0,0,0.06172839506172839,48.0246913580247,0)" xlink:href="#an"/><use transform="matrix(0.06172839506172839,0,0,0.06172839506172839,54.19753086419754,0)" xlink:href="#ax"/><use transform="matrix(0.06172839506172839,0,0,0.06172839506172839,65.30864197530865,0)" xlink:href="#ak"/><use transform="matrix(0.06172839506172839,0,0,0.06172839506172839,76.41975308641976,0)" xlink:href="#ao"/></g><path fill="#3a414a" d="M45-37c13 0 21 8 21 21C67-2 57 4 45 5 33 4 23-2 24-16c0-13 8-21 21-21" id="be"/><g id="U"><use transform="matrix(0.06172839506172839,0,0,0.06172839506172839,0,0)" xlink:href="#be"/><use transform="matrix(0.06172839506172839,0,0,0.06172839506172839,5.555555555555555,0)" xlink:href="#be"/><use transform="matrix(0.06172839506172839,0,0,0.06172839506172839,11.11111111111111,0)" xlink:href="#be"/></g><path fill="#3a414a" d="M130-224c-62 0-78 43-78 106 0 64 16 108 78 108s78-45 78-108-16-106-78-106zm0 228C53 4 15-39 15-118c-1-80 37-120 115-120s115 42 115 120C245-39 207 4 130 4" id="bf"/><g id="V"><use transform="matrix(0.09259259259259256,0,0,0.09259259259259256,0,0)" xlink:href="#bf"/><use transform="matrix(0.09259259259259256,0,0,0.09259259259259256,23.981481481481474,0)" xlink:href="#ak"/><use transform="matrix(0.09259259259259256,0,0,0.09259259259259256,40.64814814814814,0)" xlink:href="#ar"/><use transform="matrix(0.09259259259259256,0,0,0.09259259259259256,49.90740740740739,0)" xlink:href="#aj"/><use transform="matrix(0.09259259259259256,0,0,0.09259259259259256,66.57407407407405,0)" xlink:href="#ak"/><use transform="matrix(0.09259259259259256,0,0,0.09259259259259256,83.2407407407407,0)" xlink:href="#ar"/></g><g id="W"><use transform="matrix(0.0864197530864197,0,0,0.0864197530864197,0,0)" xlink:href="#ae"/><use transform="matrix(0.0864197530864197,0,0,0.0864197530864197,18.925925925925917,0)" xlink:href="#ae"/><use transform="matrix(0.0864197530864197,0,0,0.0864197530864197,37.85185185185183,0)" xlink:href="#af"/><use transform="matrix(0.0864197530864197,0,0,0.0864197530864197,65.50617283950614,0)" xlink:href="#al"/></g><g id="X"><use transform="matrix(0.09259259259259256,0,0,0.09259259259259256,0,0)" xlink:href="#aW"/><use transform="matrix(0.09259259259259256,0,0,0.09259259259259256,25.925925925925917,0)" xlink:href="#aX"/><use transform="matrix(0.09259259259259256,0,0,0.09259259259259256,40.64814814814814,0)" xlink:href="#aR"/><use transform="matrix(0.09259259259259256,0,0,0.09259259259259256,49.90740740740739,0)" xlink:href="#aV"/><use transform="matrix(0.09259259259259256,0,0,0.09259259259259256,66.57407407407405,0)" xlink:href="#aR"/><use transform="matrix(0.09259259259259256,0,0,0.09259259259259256,75.8333333333333,0)" xlink:href="#aU"/><use transform="matrix(0.09259259259259256,0,0,0.09259259259259256,94.35185185185182,0)" xlink:href="#aI"/><use transform="matrix(0.09259259259259256,0,0,0.09259259259259256,111.01851851851848,0)" xlink:href="#aP"/></g><path fill="#3a414a" d="M155 0h-10L58-199v181l32 5V0H6v-13l30-5v-200l-30-5v-13h93l67 155 69-155h94v13l-30 5v200l30 5V0H212v-13l32-5v-181" id="bg"/><g id="Y"><use transform="matrix(0.09259259259259256,0,0,0.09259259259259256,0,0)" xlink:href="#aF"/><use transform="matrix(0.09259259259259256,0,0,0.09259259259259256,22.222222222222214,0)" xlink:href="#aF"/><use transform="matrix(0.09259259259259256,0,0,0.09259259259259256,44.44444444444443,0)" xlink:href="#bg"/><use transform="matrix(0.09259259259259256,0,0,0.09259259259259256,75.83333333333331,0)" xlink:href="#aY"/></g><g id="Z"><use transform="matrix(0.09259259259259256,0,0,0.09259259259259256,0,0)" xlink:href="#aT"/><use transform="matrix(0.09259259259259256,0,0,0.09259259259259256,23.981481481481474,0)" xlink:href="#aK"/><use transform="matrix(0.09259259259259256,0,0,0.09259259259259256,38.703703703703695,0)" xlink:href="#aN"/><use transform="matrix(0.09259259259259256,0,0,0.09259259259259256,53.42592592592591,0)" xlink:href="#aG"/><use transform="matrix(0.09259259259259256,0,0,0.09259259259259256,70.09259259259257,0)" xlink:href="#aL"/><use transform="matrix(0.09259259259259256,0,0,0.09259259259259256,88.61111111111109,0)" xlink:href="#aR"/><use transform="matrix(0.09259259259259256,0,0,0.09259259259259256,97.87037037037034,0)" xlink:href="#aU"/><use transform="matrix(0.09259259259259256,0,0,0.09259259259259256,116.38888888888884,0)" xlink:href="#aV"/></g></defs></g></svg>